<?xml version="1.0" encoding="UTF-8" standalone="no"?>
<!-- Created with Inkscape (http://www.inkscape.org/) -->

<svg
   version="1.1"
   id="svg1"
   width="6000"
   height="4000"
   viewBox="0 0 6000 4000"
   sodipodi:docname="vecteezy_halloween-witch-house-silhouette-design-free_.eps"
   xmlns:inkscape="http://www.inkscape.org/namespaces/inkscape"
   xmlns:sodipodi="http://sodipodi.sourceforge.net/DTD/sodipodi-0.dtd"
   xmlns="http://www.w3.org/2000/svg"
   xmlns:svg="http://www.w3.org/2000/svg">
  <defs
     id="defs1" />
  <sodipodi:namedview
     id="namedview1"
     pagecolor="#ffffff"
     bordercolor="#000000"
     borderopacity="0.25"
     inkscape:showpageshadow="2"
     inkscape:pageopacity="0.0"
     inkscape:pagecheckerboard="0"
     inkscape:deskcolor="#d1d1d1">
    <inkscape:page
       x="0"
       y="0"
       inkscape:label="1"
       id="page1"
       width="6000"
       height="4000"
       margin="0"
       bleed="0" />
  </sodipodi:namedview>
  <g
     id="g1"
     inkscape:groupmode="layer"
     inkscape:label="1">
    <g
       id="group-R5">
      <path
         id="path2"
         d="M 5,5 V 29995 H 44995 V 5 H 5"
         style="fill:#ffffff;fill-opacity:1;fill-rule:nonzero;stroke:none"
         transform="matrix(0.13333333,0,0,-0.13333333,0,4000)" />
      <path
         id="path3"
         d="M 45000,30000 H 0 V 0 h 45000 v 30000 z m -10,-10 V 10 H 10 v 29980 h 44980"
         style="fill:#100f0d;fill-opacity:1;fill-rule:nonzero;stroke:none"
         transform="matrix(0.13333333,0,0,-0.13333333,0,4000)" />
      <path
         id="path4"
         d="m 39670.9,12359.5 c 0,-69.5 0,-119.7 0,-207.4 78.6,85.5 134.5,146.4 214.5,233.5 -88.5,-10.8 -144,-17.5 -214.5,-26.1 z M 5473.24,22962.8 c 85.22,-11.2 138.12,-18.2 211.1,-27.8 -17.03,90.1 -29.57,156.5 -48.09,254.5 -60.15,-83.6 -101.81,-141.6 -163.01,-226.7 z M 39703.4,7510.7 c 174.5,74 232.2,166.4 201.8,341.3 -69.8,-118.2 -125.2,-211.8 -201.8,-341.3 z m -1548.5,425.2 c -25.2,4.9 -50.4,9.8 -75.7,14.6 -19.8,-110.7 -39.7,-221.4 -59.6,-332.1 19.3,-4.4 38.6,-8.9 57.9,-13.3 25.8,110.3 51.6,220.5 77.4,330.8 z M 37153.5,22819 c 26.9,-1.7 53.8,-3.3 80.7,-5 0,106.2 0,212.4 0,318.5 -15.7,1.2 -31.3,2.4 -47,3.6 -11.2,-105.7 -22.5,-211.4 -33.7,-317.1 z m 1050.7,354.3 c -12.1,-1.8 -24.1,-3.6 -36.2,-5.4 -9.7,-80.6 -19.4,-161.1 -31.3,-260.3 73.9,25 121.4,41.1 185.2,62.7 -45.1,77.8 -81.4,140.4 -117.7,203 z m 1423.1,-140.4 c -21.7,-11.1 -43.5,-22.1 -65.2,-33.2 53.2,-96.6 106.4,-193.2 159.6,-289.9 24.9,14.4 49.8,28.8 74.6,43.2 -56.3,93.3 -112.6,186.6 -169,279.9 z M 33810.5,8744 c 18,2.8 36,5.6 54,8.5 -0.4,92 136.5,205.6 -91.3,283.4 14.2,-110.8 25.7,-201.3 37.3,-291.9 z M 4389.47,8148.6 c -181.18,-155.8 -175.69,-215.4 23.82,-311.8 -7.79,101.9 -15.1,197.7 -23.82,311.8 z m 2201.51,14637.7 c 170.49,149.2 33.8,264.3 50.82,379.2 -16.94,0.1 -33.88,0.2 -50.82,0.3 0,-113.4 0,-226.8 0,-379.5 z M 36231.3,7975.9 c 16.3,-17.8 32.5,-35.5 48.7,-53.2 99,43 205.1,79.1 228.6,196.6 -13.5,14.4 -27,28.7 -40.5,43.1 -78.9,-62.2 -157.8,-124.3 -236.8,-186.5 z m -199.8,-1126.3 c 12,-2.8 24,-5.7 36,-8.6 47.4,166.4 94.8,332.8 142.1,499.2 -19.9,5 -39.8,9.9 -59.6,14.9 -39.5,-168.5 -79,-337 -118.5,-505.5 z m -1917.3,1290.8 c 9.1,97.1 18.3,194.3 27.4,291.4 -50.9,-94 -200.1,-172.9 -27.4,-291.4 z m 2174.5,-534.9 c 80.7,116.4 138.9,200.3 197.1,284.2 -182.4,-0.3 -257.9,-72.7 -197.1,-284.2 z m -12845.2,6970 c -4.1,-0.1 -8.2,-0.2 -12.3,-0.3 0,-367.5 0,-735 0,-1102.5 4.1,0.1 8.2,0.1 12.3,0.2 0,367.5 0,735 0,1102.6 z m -295,-1111.4 c 8.2,1.5 16.4,3 24.6,4.5 0,368.4 0,736.7 0,1105.1 -8.2,-0.2 -16.4,-0.4 -24.6,-0.7 0,-369.6 0,-739.3 0,-1108.9 z m -321.1,-6.8 c 9.6,0.1 19.2,0.1 28.9,0.2 0,383.8 0,767.6 0,1151.4 -9.7,-0.1 -19.3,-0.2 -28.9,-0.3 0,-383.7 0,-767.5 0,-1151.3 z m 9983.3,-5164.5 c 46.4,133.7 155.5,267.6 0,400.3 0,-133.4 0,-266.9 0,-400.3 z m 6543.8,-102.4 c 16.9,-98.1 33.8,-196.3 54.4,-315.7 178.3,132.5 176,145 -54.4,315.7 z m -5168,426 c 121.2,259.8 106.3,296.7 -128.8,335 42.4,-110.3 84.1,-218.8 128.8,-335 z M 22142,13459.3 c 7.3,-0.3 14.5,-0.7 21.8,-1 0,378.2 0,756.4 0,1134.6 -7.3,-0.4 -14.5,-0.8 -21.8,-1.2 0,-377.4 0,-754.9 0,-1132.4 z M 35981.1,7208.6 c 67.4,173.6 134.9,347.2 202.4,520.9 -201.8,-125.2 -197.5,-324.5 -202.4,-520.9 z m -14005,6240.8 c 7.7,0.4 15.4,0.9 23.1,1.4 0,383 0,765.9 0,1148.9 -7.7,-0.5 -15.4,-0.9 -23.1,-1.4 0,-383 0,-766 0,-1148.9 z m 10984.7,595.3 c -90.6,0 -162.3,0 -240.8,0 5.5,-67.7 9.8,-120.5 14.7,-181.6 39.9,-3.2 71.3,-8 102.7,-7.6 36.2,0.4 72.3,5.4 114.4,8.9 3.2,63.6 5.8,116.8 9,180.3 z m 7873.4,-8533.1 c -14.1,-1 -28.3,-2.1 -42.4,-3.1 40.1,-164.8 -59,-364.8 108.4,-497.3 19.5,4.6 39,9.3 58.4,13.9 -41.4,162.2 -82.9,324.4 -124.4,486.5 z m -18534.4,7948.7 c 10.1,-1.2 20.2,-2.3 30.3,-3.5 0,382.4 0,764.7 0,1147.1 -10.1,-0.3 -20.2,-0.6 -30.3,-0.9 0,-380.9 0,-761.8 0,-1142.7 z M 33491,8664.5 c 19.6,-5.8 39.2,-11.6 58.8,-17.4 28.9,130.6 57.8,261.2 95.2,430.1 -218.8,-114.7 -133,-279.9 -154,-412.7 z m 3415.6,-1705.8 c 194.6,135.6 135.7,316.7 144.8,485.5 -14.2,2.9 -28.5,5.8 -42.7,8.6 -34,-164.7 -68.1,-329.4 -102.1,-494.1 z m -289.8,-407.4 c 118.2,237.6 160.1,557.2 81,707.6 -27.9,-244.1 -53.1,-463.8 -81,-707.6 z m -13968.6,6899.1 c 10.2,-0.5 20.5,-1.1 30.7,-1.6 0,385.3 0,770.7 0,1156 -10.2,0 -20.5,-0.1 -30.7,-0.1 0,-384.8 0,-769.5 0,-1154.3 z m 9291.8,414.8 c 79.1,0 152.8,0 238.3,0 0,62.2 0,122.6 0,179.6 -88.4,0 -166.1,0 -249.8,0 4.2,-65.8 7.6,-118.9 11.5,-179.6 z m 2649.3,-5607.1 c 114.4,43.6 150.6,407.6 96.4,753.5 -28.5,-222.8 -62.1,-485.5 -96.4,-753.5 z m -3180,5780.2 c -90.7,0 -167.8,0 -253.1,0 7.5,-67.4 13.3,-119.7 18.7,-169.1 84.4,0 157.1,0 234.4,0 0,61.4 0,109.8 0,169.1 z m 9018.9,-8275.9 c -234,-119.2 -303.3,-294.8 -175,-435.6 62.2,154.8 118.6,295.2 175,435.6 z m -17131.9,7680.2 c 10.5,0.1 20.9,0.1 31.4,0.2 0,385.1 0,770.2 0,1155.4 -10.5,-0.1 -20.9,-0.2 -31.4,-0.3 0,-385.1 0,-770.2 0,-1155.3 z m 13891.9,8333 c 315.2,202.3 384.8,376 255.9,520.8 -77.3,-157.3 -156.5,-318.5 -255.9,-520.8 z m -5646.4,-7725.1 c 0,-68.7 0,-125 0,-182.6 92.5,0 175.7,0 257,0 0,66.8 0,122.7 0,182.6 -86.6,0 -161.4,0 -257,0 z m 780.4,-0.3 c 0,-75.5 0,-131.3 0,-184.5 96.8,0 180.9,0 266.9,0 0,66.1 0,122 0,184.5 -93.6,0 -177.2,0 -266.9,0 z m -9292.7,544.5 c -11.3,-0.2 -22.6,-0.3 -33.9,-0.5 0,-383.3 0,-766.6 0,-1150 11.3,0.2 22.6,0.4 33.9,0.6 0,383.3 0,766.6 0,1149.9 z M 36422.4,7648.2 c -200.2,-120.3 -205.7,-161.4 -60.9,-578.2 22.8,216.2 41.8,396.4 60.9,578.2 z M 6370.89,22314.9 c -119.98,-169.3 -50.68,-345.8 259.43,-527.9 -97.85,199.1 -179.45,365.2 -259.43,527.9 z M 20052.1,7735.9 c -7.1,15.9 -14.3,31.8 -21.4,47.7 -324.2,-180.7 -648.3,-361.3 -972.5,-541.9 7.1,-12.9 14.2,-25.9 21.3,-38.9 324.2,177.7 648.4,355.4 972.6,533.1 z m 13947.8,1119 c -17.3,1 -34.5,2.1 -51.7,3.2 -10.8,-160.5 -21.6,-321 -34.5,-513.3 200,161 211.2,269.9 86.2,510.1 z M 22480.2,13454 c 9.3,-0.5 18.7,-1 28,-1.5 0,383.7 0,767.4 0,1151.1 -9.3,-0.4 -18.7,-0.8 -28,-1.1 0,-382.9 0,-765.7 0,-1148.5 z M 39603.6,6857.7 c -277.6,-54.8 -316,-274.5 -383.8,-487.7 232.6,87.4 314.8,276 383.8,487.7 z m 220,-1492.9 c 19.3,-9.9 38.7,-19.9 58,-29.8 170.4,312.4 340.7,624.9 525.8,964.3 -308.6,-269 -456.7,-595.7 -583.8,-934.5 z m 898.7,620.3 c -172.2,-288.8 -200.9,-624.6 -70.5,-768.7 54.8,249.6 148.6,481.5 70.5,768.7 z m -6234.4,2506.7 c 70,245.8 173.4,485.1 88.7,782 -173.6,-274.5 -135.4,-529.8 -88.7,-782 z m 2493.6,-258.1 c -22.1,3 -44.1,6 -66.2,8.9 -26.8,-216.6 -55.6,-432.9 -79,-649.9 -5.7,-52.9 6.5,-107.7 12.8,-194.4 212.5,288 141.9,564.6 132.4,835.4 z M 4670.27,5724.5 c 24.2,-36.2 44.41,-66.4 64.63,-96.6 28.94,26.6 87.18,62.1 82.22,78.6 -41.53,137.5 -94.68,271.6 -144.33,406.7 -26.53,-3.2 -53.06,-6.4 -79.59,-9.6 -31.6,-167.8 -63.2,-335.5 -94.8,-503.2 17.89,-6.4 35.79,-12.8 53.68,-19.2 39.27,47.6 78.53,95.2 118.19,143.3 z m 4544.68,10464.8 c -338.56,-80.5 -460.19,-294.7 -392.6,-655 141.58,236.2 267.09,445.6 392.6,655 z m 23235.55,848.8 c 86,27.4 149.6,41.9 208.2,67.6 106.1,46.8 124.6,132.9 43.5,206.1 -90.9,82.2 -203.7,140.1 -345,233.8 36.7,-199.7 63,-342.6 93.3,-507.5 z m -3187.4,2587.5 c -134.6,-256.6 -48,-498.8 -77.8,-738.7 64.8,0 110.2,0 154.7,0 47.6,264.2 24.2,591.2 -76.9,738.7 z M 34804.7,8318.4 c 16.8,-8.1 33.6,-16.3 50.4,-24.4 44.6,57.5 121.3,111.5 128,173.1 22.9,213.7 6.9,424.8 -178.4,561.5 0,-235.2 0,-472.7 0,-710.2 z m -231.2,7921 c 154.7,-243.4 291.4,-458.3 438.2,-689.2 88.1,331.3 -58.2,602.8 -438.2,689.2 z M 2656.64,18579.9 c 20.94,16 41.89,32 62.83,48 -35.63,60.8 -59.11,160 -109.02,175.8 -215.72,68.4 -439.18,112.5 -690.42,172.7 212.47,-250.1 464.33,-343.7 736.61,-396.5 z M 4166.07,5509.7 c 210.84,378.9 146.38,609.8 -244.39,865.8 83.29,-295.1 162.31,-575 244.39,-865.8 z M 15858.2,19933.8 c -71.1,-51.8 -116.9,-74.2 -147.4,-109.7 -82.7,-96.4 -159,-198.3 -237.9,-298.1 122.4,-57.1 244.8,-114.3 385.3,-179.8 0,212.3 0,379 0,587.6 z m 26029.1,-968.5 c -221.8,-49.9 -422.7,-92.5 -622.2,-140.9 -181.2,-44 -189.5,-66.6 -109.6,-241.8 254.1,-9 566.3,150.1 731.8,382.7 z M 8961.86,8995.9 c -132.09,-152.6 -291.44,-235.1 -251.16,-436.7 33.98,-170 160.95,-226.7 317.43,-278.2 -21.94,236.7 -42.33,456.6 -66.27,714.9 z M 27527.2,19613.4 c -150.2,-229.1 -86.4,-478.5 -90.9,-726.7 79,0 136.1,0 217.9,0 -43.8,248 62.9,501.6 -127,726.7 z M 6558.23,18892.6 c -17.37,-0.4 -34.74,-0.8 -52.11,-1.1 -117.45,-153.7 -237.43,-305.5 -350.92,-462 -37.36,-51.5 -77.95,-114.4 -80.33,-173.5 -2.17,-54.2 45.18,-110.4 70.72,-165.8 52.65,25.5 134.79,38.3 152.34,78.9 49.06,113.6 71.39,238.8 101.33,348.6 1.75,-1.6 30.56,-27.8 59.39,-54 17.89,1.5 35.78,3.1 53.67,4.6 15.3,141.5 30.6,282.9 45.91,424.3 z m 12753.27,267 c 0,180.8 9.9,358.7 -6,534.3 -4.7,52.7 -81.1,98.9 -124.7,148 -42.3,-51 -116.1,-99.1 -121.2,-153.6 -15.8,-171 -5.8,-344.3 -5.8,-528.7 87.5,0 165.8,0 257.7,0 z m 20851.7,2268.3 c -131.4,11 -246.7,-18 -296.6,-134.7 -76.3,-178.3 -82,-364.5 6.5,-547.6 194.8,87.6 319.2,381.9 290.1,682.3 z m -36502.55,1.8 c -13.92,-342.3 107.61,-595.8 316.04,-670.9 140.12,384.6 1.44,689.7 -316.04,670.9 z M 37295.6,18912.9 c -47.7,-158.8 -92.6,-314.1 32.7,-479.8 43.4,60.5 73.8,102.9 77.1,107.5 29,-114.2 56.8,-252.5 102.3,-384.7 14,-40.8 103.1,-98.4 112,-91.2 51.2,41.1 104.3,93.8 125.3,153.6 14.6,41.8 -7.7,110.9 -36.7,151.1 -131.5,182.4 -271.3,358.9 -412.7,543.5 z M 36768.3,8427.6 c -15,0.3 -30,0.6 -45.1,0.9 -46.9,-116.9 -93.9,-233.8 -149.6,-372.6 57.7,22.1 84.8,32.5 130.6,50 -209.5,-381.5 -150.9,-785.8 -178.4,-1178.1 112.6,456.5 199.4,917.6 280.9,1379.6 6.5,36.6 -24.7,80 -38.4,120.2 z m 955.3,-1549.9 c 64,197.3 123.2,355.9 166,518.8 40.1,152.6 63,309.7 98.7,491.6 -300.6,-224.7 -546.1,-979.5 -401.5,-1252.8 22.9,173.9 41.8,317 60.7,460.1 9.7,-0.8 19.4,-1.6 29.1,-2.4 13.5,-61.8 27,-123.6 47,-215.3 z M 2809.75,18751.1 c -60.75,-284.9 346.94,-654.2 641.16,-580.8 -95.29,331.5 -339.38,552.6 -641.16,580.8 z M 40382.6,18167 c 341.5,-51.1 688.9,266.2 627.1,572.8 -327.9,-44.2 -523.6,-223 -627.1,-572.8 z M 27107.2,11932.1 c 0,245.9 9.4,485.1 -4.1,723 -6.3,111.8 -60,218.1 -192.6,241.9 0,-326.6 0,-644.9 0,-964.9 74.1,0 132.4,0 196.7,0 z m 12301.9,7617.5 c 292.2,278.3 204,636.5 263.6,978.4 -465.4,-356.5 -526.6,-580.7 -263.6,-978.4 z m -34968.3,-2.8 c 249.06,443.1 173.21,707.5 -277.2,987 74.49,-336.6 -41.27,-712.2 277.2,-987 z m 6587.8,-4007.9 c -15.1,242.1 -22.1,474.6 -49,704.8 -6.6,56.7 -77.9,105.8 -119.4,158.5 -49.4,-50.5 -135.5,-96.9 -141.9,-152.3 -26.8,-234.6 -30,-471.8 -41.9,-711 130,0 225.6,0 352.2,0 z m 9158.5,1205.3 c 21.1,-6 42.2,-11.9 63.3,-17.9 267.9,342.7 468.2,716.5 514.2,1157.9 5.3,51.5 -23.5,106.6 -38.3,167.6 -79.6,-126.5 -130.7,-225.6 -198.6,-311.5 -110.8,-140.3 -240.6,-266 -209.6,-471.3 7.6,-49.7 -21.2,-105.2 -34.8,-157.6 -31.6,-122.5 -64.1,-244.8 -96.2,-367.2 z m 6582.3,-714 c -46.6,231.7 -82.1,442.8 -135.5,649.3 -13,50.2 -85.3,118.3 -130,118.1 -47.4,-0.2 -114.8,-62.8 -138.1,-114.1 -93,-205.6 -99.7,-425.1 -91.4,-653.3 159.4,0 298.6,0 495,0 z m 2025.3,2882 c -19.1,244.8 -28.3,483.1 -62.5,717.7 -9,61.4 -95.9,111.4 -147,166.6 -49.4,-59.3 -133.4,-114.1 -142.1,-178.8 -30.6,-229.6 -35.6,-462.7 -50.9,-705.5 145.7,0 257.8,0 402.5,0 z m -12006.4,-5498 c 0,278.3 9.7,544.2 -6.7,808.5 -4.2,67.4 -90.9,129.7 -139.7,194.4 -51.1,-61.9 -137.7,-119.2 -146.6,-186.6 -26,-198 -27.1,-400.1 -26.9,-600.6 0.2,-233.5 5.3,-233.7 237.7,-225.5 21.1,0.7 42.1,4.9 82.2,9.8 z m 22023.4,7864.3 c -148.4,-114.8 -271.7,-243.4 -189.2,-420.1 87.9,-188.2 214.6,-360.7 340.4,-528 66.4,-88.4 145.6,-55.5 181.9,45.6 54.2,150.6 48.3,300 -36.6,438.6 -93.2,152.1 -191.9,300.9 -296.5,463.9 z M 7489.72,16442 c -11.21,3.1 -22.43,6.1 -33.65,9.2 -26.74,-63 -60.12,-124 -79.02,-189.3 -58.98,-203.7 -116.23,-408 -167.16,-613.8 -62.07,-250.8 40.32,-344.8 293.17,-275.8 166.45,45.4 215.26,127.5 174.26,298.2 -61.77,257.4 -124.99,514.4 -187.6,771.5 z M 39071.3,10487.3 c 20.3,13.2 40.6,26.4 60.9,39.6 -179.5,472.2 -188.5,1001.7 -494.5,1457.3 -99.3,-97.4 -183.4,-179.8 -258.8,-253.8 98.2,-148.9 196.1,-275.1 269.1,-414.4 73.1,-139.3 112,-296.4 183,-437.1 68.7,-136.3 159.3,-261.5 240.3,-391.6 z M 5009.36,21278.5 c -90.37,-141.8 -184.24,-280.4 -268.81,-424.4 -88.45,-150.5 -129.67,-311.2 -49.99,-480.3 40.19,-85.3 115.48,-122.4 175.89,-39.2 128.7,177.4 264.08,356.9 350.62,555.7 74.95,172.1 -26.83,316 -207.71,388.2 z M 36399.3,16448.2 c -21.6,-4.1 -43.1,-8.2 -64.7,-12.2 -75,-287 -160.1,-572.1 -216.3,-862.7 -10.7,-55.3 84.1,-178.2 145.5,-190 111.4,-21.3 234.5,16.4 352.1,33.8 7.7,1.2 18.1,40.7 13.8,59.2 -75.5,324.2 -153.2,648 -230.4,971.9 z M 4702.94,10534.5 c 20.2,-10.4 40.4,-20.7 60.6,-31 71.46,110.3 152.27,215.7 212.53,331.8 151.63,292.2 293.99,589.1 459.78,923.9 -51.05,49.5 -138.4,134.2 -236.02,228.9 -320.52,-453.8 -307.93,-986.2 -496.89,-1453.6 z M 37059.8,21347.6 c -140.8,-127.7 -286.5,-275.2 -214.2,-484.5 62.3,-180.3 176.6,-343.9 278.6,-508.2 22.7,-36.5 101.2,-71.9 134.8,-58.8 34.6,13.5 62.5,86.2 64.6,134.3 14.1,329.8 58.3,670 -263.8,917.2 z M 6742.94,21361 c -314.46,-255.1 -250.03,-608.2 -235.98,-943.7 4.46,-106.7 92.18,-143.9 168.94,-56.4 98.98,112.8 196.65,233.8 262.52,367.2 130.73,264.8 57.65,469.3 -195.48,632.9 z M 19209.3,13003 c -16.2,305.3 -21.3,592.6 -53.4,876.9 -8.2,73 -101.4,136.4 -155.6,204.3 -60.9,-67.9 -166.3,-130.5 -174.9,-204.4 -33.1,-288.2 -35.6,-580 -49.8,-876.8 155.5,0 273.8,0 433.7,0 z m -14741.94,145.1 c -12.81,-7.8 -25.62,-15.7 -38.43,-23.6 66.61,-245.3 -10.06,-471.3 -73.05,-703.4 -32.11,-118.4 -38.25,-259.2 -5.72,-375.9 42.51,-152.3 150.35,-167.2 278.08,-70.7 218.74,165.2 301.56,475.3 166.85,715.6 -91.22,162.8 -217.26,306.1 -327.73,458 z m 34906.74,-6.6 c -98.9,-127.1 -204.6,-249.6 -295,-382.6 -127.6,-187.6 -119.4,-391.2 -32.7,-592.6 71.6,-166.3 242.2,-293.6 339.8,-263.1 111.6,34.8 195.8,287.2 132.2,450.4 -97.6,250.5 -161,503.1 -144.3,787.9 z m -13910.8,4473.1 c -16.7,306.7 -22.7,626.2 -59.3,942.3 -9.2,79.1 -116.9,146.8 -179.3,219.8 -57.6,-70.9 -153.6,-135.9 -165.5,-213.8 -31.7,-208.1 -35.6,-421.7 -35.6,-633.2 0,-370.8 4.6,-370.9 378.2,-339.6 10,0.8 19.4,7.4 61.5,24.5 z m 13628.6,1275.6 c -53.5,-122.3 -104.3,-245.9 -161.3,-366.5 -76.4,-161.7 -128.7,-346.9 -243.2,-476.1 -214.9,-242.3 -317.6,-514.9 -334.8,-827.8 -3.4,-63.1 20.8,-127.6 32.3,-191.4 64.5,30.8 133,55.7 192.2,94.7 34.2,22.5 53.7,67.5 79.3,102.8 357.2,492.4 479,1052.4 435.5,1664.3 z M 4251.68,11013.6 c 15.71,3.1 31.43,6.2 47.14,9.4 0,90.2 20.15,186.8 -5.87,268.8 -24.3,76.6 -83.82,172.8 -151.74,199.4 -286.63,112.5 -582.04,202.6 -874.67,299.5 -39.17,13 -80.86,18.4 -127.7,28.6 87.8,-158.1 182.04,-298.8 247.7,-451.8 164.63,-383.5 406.32,-536 830.33,-503.6 -85.07,147.2 -170.62,295.3 -256.17,443.3 11.05,6.6 22.1,13.1 33.15,19.6 85.94,-104.4 171.89,-208.8 257.83,-313.2 z M 15725,10741.7 c -16.4,332.9 -27.1,648.1 -50.8,962.4 -6.2,83.4 -40.4,170.7 -83.1,243.9 -66.2,113.6 -173.1,113.9 -248.8,7.2 -30.5,-43.1 -58.5,-97.1 -62.7,-148.2 -29.1,-350.6 -51.6,-701.7 -77.1,-1065.3 188.9,0 338.8,0 522.5,0 z M 40673.3,11802 c -18.1,-3.2 -56.8,-3.1 -89.6,-16.9 -300.6,-126.3 -592,-277.6 -924.9,-310.6 -37,-3.7 -95.2,-56 -98.5,-90.1 -11.9,-124.2 -4.7,-250.3 -4.7,-375.7 13,-2.7 26,-5.4 39.1,-8.2 87.8,105.9 175.6,211.8 263.4,317.7 12.5,-8.7 25,-17.4 37.5,-26.1 -97.7,-147.3 -195.5,-294.6 -312.8,-471.4 186.1,37.8 342.4,59.8 492.7,102.8 151.1,43.3 271.3,132.8 335.8,287.6 82.9,198.7 174.1,393.8 262,590.9 z M 29405.8,10735.3 c -30.2,376.2 -48.3,728.8 -94.1,1077.8 -10.9,82.6 -115.2,152.8 -176.6,228.8 -64.1,-72.7 -174.9,-139.9 -184.2,-219.1 -42.3,-358.6 -55.9,-720.7 -80.2,-1087.5 193.4,0 343.9,0 535.1,0 z m -1268.5,3.9 c -27,366.6 -42.7,723.4 -87.2,1076.6 -10.1,80.3 -119.3,148.1 -182.9,221.7 -62.9,-73.5 -170.3,-141.2 -180.9,-221.6 -46.5,-352.9 -64.9,-709.5 -94.5,-1076.7 196.3,0 351,0 545.5,0 z M 4731.48,18895.4 c -12.68,-4.5 -25.35,-9 -38.03,-13.4 10.92,-165.6 22.79,-331 32.56,-496.7 26.97,-457.1 212.9,-852.5 480.13,-1213.1 44.75,-60.5 122.31,-101.1 192.37,-135 17.39,-8.5 95.79,48.2 93.49,69.1 -27.71,251.8 -8.26,522.2 -192.24,727.5 -200.76,224 -339.16,476.7 -427.7,762.5 -32.27,104.2 -92.89,199.6 -140.58,299.1 z m 9214.82,-8158 c 191.6,0 341.5,0 527.7,0 -22.9,359.2 -32.6,706.4 -75.3,1049.4 -11.5,92.5 -116.2,236.2 -190.7,244.6 -139.1,15.6 -185.9,-139.4 -196.5,-256.4 -30.7,-339.9 -44.1,-681.4 -65.2,-1037.6 z m 6945.4,1818.2 c -31.8,373.3 -54.1,735 -100.4,1093.7 -9.3,72.4 -109.6,133.1 -168,199.2 -66.2,-64.8 -168.2,-118.3 -192.5,-196.2 -112.1,-359.3 -59.7,-729.6 -63.7,-1096.7 175.4,0 326.3,0 524.6,0 z m 3992.1,-3.4 c 0,323.1 5.9,633.2 -4,942.8 -2.6,82.6 -41.6,170.5 -84.6,244 -86.2,147.3 -214.3,142.1 -301.6,-5.7 -24.7,-41.6 -51.5,-88.8 -54.9,-135.2 -25.7,-345 -45.8,-690.4 -68.3,-1045.9 199.2,0 355.4,0 513.4,0 z m 14659.8,9543.6 c -260.2,-178.3 -424.1,-359.1 -467.3,-613.8 -18.7,-110.2 -3.8,-238.6 35.9,-343.6 64.1,-169.8 169.9,-323.5 241.8,-491.1 53,-123.3 121,-119.6 190.5,-37.5 57.8,68.2 116,154.7 127.7,239.5 28.8,208.6 57.2,423.5 36.4,631 -19.9,198.7 -102,391.1 -165,615.5 z m -35235.78,-11.1 c -213.44,-443 -280.26,-880.7 -105.49,-1337.8 15.14,-39.6 42.72,-77 72.2,-108.1 95.93,-101.3 155.05,-83.9 211.62,41.1 66.88,147.8 155.82,286 218.1,435.4 42.22,101.4 88.55,219.6 74.52,322.2 -39.15,286.4 -212.29,490.8 -470.95,647.2 z M 37815.8,12601.2 c -130.3,68.6 -263.1,141 -398.1,209 -246.2,124.1 -476.9,77.4 -661,-130.8 -191,-216 -89.8,-551 188.4,-623.5 320,-83.3 782.4,199.6 870.7,545.3 z m -31808.07,-0.5 c 114.34,-336.1 483.2,-578.7 808.73,-548.4 231.3,21.4 399.3,240.4 354.05,461.4 -52.71,257.4 -428.85,451.4 -679.47,340.3 -163.51,-72.6 -317.87,-165.7 -483.31,-253.3 z m 3765.32,-75.1 c 105.18,85.8 138.72,741.2 41.78,1093.2 -169.83,-118.6 -363.82,-199.6 -474.51,-344.2 -163.16,-213.3 -277.34,-467.3 -387.54,-715 -22.72,-51.1 47.58,-169.8 106.8,-219.4 27.55,-23.1 148.69,27.4 196.1,75.4 67.58,68.5 106.37,165.3 159.99,254.3 24.79,-77.4 42.98,-134.2 64.2,-200.4 -3.39,-1.9 -23.8,-9.7 -39.54,-23.1 -32.9,-27.8 -63.33,-58.5 -94.78,-88.1 46.21,-17.1 111.29,-62.1 135.12,-46 74.09,49.9 135.68,120.3 195.57,188.6 25.68,29.2 35.22,72.7 64.28,136.4 16.53,-56.8 24.43,-83.9 32.53,-111.7 z m -3809.72,5569.5 c -159.28,-310.7 -239.2,-628.8 -169.69,-968.6 54.45,-266.1 118.98,-530.7 192.99,-792 22.61,-79.8 91.51,-146.5 139.21,-219.2 73.93,79.6 155.97,153.4 218.02,241.4 27,38.3 16.58,105.5 16.88,159.6 1.28,240 -4.16,480 1.16,719.9 7.72,347.6 -89.03,645.3 -398.57,858.9 z m 31883.57,16 c -179.9,-177.8 -368.7,-343.5 -375.6,-615.1 -9.4,-370.7 -18.6,-741.6 -13.6,-1112.2 1,-72.6 55.1,-153.9 105,-214.3 87.4,-105.7 174.7,-96.6 221.4,32.4 226,624.8 448.7,1252.9 62.8,1909.2 z m -918.1,-2422.4 c 26.1,-3.2 52.2,-6.4 78.3,-9.6 29.2,70 77.5,138.2 84.4,210.4 42.2,439.4 76.6,879.6 109.8,1319.8 9.8,130.7 -42.6,239.2 -164.5,294.8 -122.2,55.8 -156.1,150.3 -166.4,273.6 -12.5,148.1 -41.1,294.9 -64.7,455.8 -594,-908.5 -182.4,-1722.5 123.1,-2544.8 z M 7031.2,18252.9 c -8.52,3.7 -17.03,7.3 -25.56,11 -23.76,-165.3 -53.77,-330 -69.18,-496.1 -11.16,-120.1 -53.47,-206.1 -169.14,-254.6 -110.95,-46.6 -177.21,-135 -167.04,-256.6 37.28,-445.4 76.96,-890.7 125.86,-1334.9 8.33,-75.7 66.34,-145.9 115.92,-248.8 50.02,75.2 82.99,107.1 95.06,145.6 115.49,368.2 247.5,732.8 334.97,1107.8 94.2,403.9 64.7,802.7 -191.94,1158 -32.27,44.7 -33.4,111.9 -48.95,168.6 z m 15306.1,3288.3 c 215,0 430.9,0 643.8,0 0,452 13.1,893.8 -7.8,1333.9 -6.5,136.4 -88,280 -167.1,399 -87.2,131.2 -206.2,134.1 -294.1,3.1 -82.1,-122.3 -160,-273.3 -167,-415.2 -21.4,-434.8 -7.8,-871.3 -7.8,-1320.8 z m 16658.1,-4532.7 c 49,-76.7 99.6,-152.5 146.7,-230.4 59.6,-98.4 139,-192 169.4,-299.2 49.9,-176.5 204.9,-309 393.2,-294.6 153.3,11.7 213.1,72.1 177.2,221.4 -79.1,328.3 -12.1,636.4 92.9,945.2 45.2,133.3 76.1,272.5 101.1,411.3 17,94 -21.4,157.5 -134.2,155.1 -463.1,-10.1 -902.6,-435.2 -946.3,-908.8 z M 4830.82,17003 c -34.74,384.1 -341.74,785.3 -705.4,875.6 -112.92,28 -238.29,5.8 -357.96,6.6 6.71,-115.4 -9.07,-237.7 24.16,-344.9 118.06,-380.7 250.33,-755.6 144.32,-1164.4 -26.64,-102.8 33.56,-165.1 134.1,-186.9 205.16,-44.4 415.56,115.3 459.92,320 20.69,95.4 94.87,180.2 148.78,267.3 47.84,77.3 101.17,151.3 152.08,226.7 z m 22715.08,-555.8 c -18.5,0.3 -37.1,0.7 -55.6,1 -13.8,-155.6 -22.4,-311.9 -42.3,-466.7 -77.7,-604.9 90.1,-473.6 -482,-738.2 -47,-21.7 -105.4,-94.3 -101.5,-138 20.3,-225.1 60.3,-448.4 91.2,-672.5 15.7,-113.7 24.2,-228.3 41.6,-341.7 5.3,-34.2 21.1,-80.9 47,-95.7 173.7,-99 114.5,-204.5 15.8,-313.8 -123.4,-136.6 -213.6,-282.9 -137.3,-511.1 175.1,132.9 336.8,259.2 502.4,380 102.2,74.6 136.1,167.6 132.5,294.1 -10.4,371.1 -10.3,742.5 -11.4,1113.8 -1.5,496.2 -0.4,992.5 -0.4,1488.8 z m 9308,4844.9 c 92.9,153.1 189.9,275.4 245.7,414.2 70.5,175.3 115.9,362.2 156.7,547.5 48.1,218.7 -130.3,547 -325.4,604.3 -37.8,11.1 -119.7,-18.8 -132.9,-50.1 -106.3,-252.6 -302.3,-424 -506,-591.1 -417,-342 -442.8,-247.4 -150.9,-822.5 22.1,-43.4 49.2,-87.1 83.6,-120.8 69.6,-68.3 137.1,-149 222.2,-188 63.1,-28.9 165.3,-22.9 226,10.8 41.7,23.2 51.2,119.6 58.2,185.1 5.5,51.3 -15.1,105.3 -30,193.1 59.2,-70.7 93.3,-111.4 152.8,-182.5 z M 7033.1,22908.7 c -283.03,-61.1 -405.65,-165.6 -437.23,-437.9 -44.14,-380.6 98.76,-717.6 299.51,-1032.9 25.89,-40.6 48.53,-83.4 76.83,-132.3 73.09,98.6 114.06,153.8 155.03,209.1 6.08,-54.8 -18.86,-96.3 -16.82,-136.5 4.58,-90.5 -9.17,-211.1 41.96,-263.8 91.8,-94.4 223.58,-48 308.25,35.6 103.12,101.8 201.28,216.2 271.95,341.8 232.21,412.8 223.48,426 -152.07,717.7 -241.02,187.2 -484.68,374.1 -547.41,699.2 z M 3618.57,18640.6 c -96.58,-141.8 -97.61,-150.4 -6.43,-256.7 135.28,-157.8 307.31,-236.6 516.13,-239.4 210.41,-2.9 287.86,51.3 333.28,254.8 110.09,493.4 -60.75,910.7 -362.65,1286.9 -93.66,116.7 -228.6,151.5 -369.91,97.3 -164.82,-63.2 -304.68,-174.5 -325.01,-355.6 -24.17,-215.3 -13.76,-435.2 -9.77,-652.9 2.27,-124.3 57.85,-198.5 224.36,-134.4 z m 36665.23,-27.8 c 114.2,4.7 160.5,47.1 162.1,206.1 1.9,185.6 3,372 -12.4,556.7 -15.4,185.8 -145.7,300 -297.6,383.7 -115.4,63.7 -231.5,42.4 -337.9,-36 -351.7,-259 -568.8,-1000.7 -412,-1404.4 51.8,-133.4 145.3,-199.6 288.5,-195.4 232.5,6.6 426.7,93.2 559.7,287.5 31.7,46.4 29.8,115.9 49.6,201.8 z m -2207.6,2150.6 c 205,-26.4 253.8,-9.8 276.2,188.2 16.5,145.8 -3.4,302.3 -39.1,446.1 -91.9,370.1 -445.7,419.6 -718.8,573.7 -61,-69.5 -120.7,-126.5 -166.6,-192.9 -49.1,-71.2 -77,-157.4 -128.4,-226.5 -121.5,-163.1 -118,-201.8 74,-343.7 12.2,137.5 23.4,264.5 36,406.1 10.7,-159.8 24.2,-305.7 29.1,-451.9 4.9,-146.4 1.1,-293.2 1.1,-416.6 96.2,-64.3 172.1,-115.1 248.1,-165.9 -175.1,37.8 -221.1,-51.4 -230,-188.4 -11.4,-173.9 -29.9,-347.8 -31.3,-521.8 -0.6,-73.7 34.3,-147.7 53.1,-221.5 17.5,-1.9 35,-3.8 52.5,-5.7 239,342.4 477.9,684.7 712.4,1020.8 -63.9,38 -116.1,69 -168.3,100 z M 5556.28,20673 c 251.79,-345 500.83,-686.2 749.88,-1027.5 16.52,4 33.04,8 49.57,12.1 15.83,65.1 45.85,130.5 44.74,195.4 -2.97,174 -25.6,347.6 -28.4,521.6 -2.55,158.4 -57.94,241.4 -278.84,177.5 81.26,66.1 115.15,116.1 156.39,123.2 152.04,26 144.94,131.9 143.23,243.8 -2.78,181.9 -0.75,363.8 -0.75,545.7 -6.1,-0.4 -12.21,-0.7 -18.31,-1 32.04,-80.4 64.1,-160.8 101.05,-253.5 47,60.7 99.29,103.3 115.13,156.7 12.81,43.1 -12.65,101.6 -32.01,148.8 -11.66,28.5 -48.24,45.7 -66.51,72.7 -81.34,120.4 -143.3,262 -248.9,353.8 -37.27,32.4 -179.04,-55.1 -272.87,-88.5 -25.57,-9.1 -50.28,-20.6 -75.38,-31.1 -319.06,-132.7 -500.32,-464.2 -434,-803.8 14.37,-73.5 30.01,-161.4 78.24,-209.1 36.5,-36.2 125.79,-19 225.34,-29 -78.43,-40.7 -131.85,-68.4 -207.6,-107.8 z m 3069.13,-3947.6 c 191.01,137.5 362.81,261.2 545.8,392.9 -200.81,145 -378.5,289.9 -571.99,409.2 -284.84,175.6 -702.01,-7.3 -789.49,-330.3 -45.46,-167.8 -87.54,-338 -151.64,-498.9 -101.42,-254.7 -3.94,-795.1 174.29,-974.2 291.41,309.7 583.44,620 877.87,932.9 -11.98,9.7 -44.34,35.8 -84.84,68.4 z m 25843.39,243.5 c 605.7,-322.2 1126.5,-707.5 1474.7,-1286.2 201.2,180.1 326.8,757.6 232.2,982.4 -56.7,134.7 -125.4,273.2 -140.5,415.1 -52.3,488.5 -677.9,639.3 -965.2,347 -132.1,-134.5 -304.5,-229.4 -458,-343.1 -41.9,-31 -81.3,-65.2 -143.2,-115.2 z M 6299.18,13878.3 c -35.7,-347.6 -213.35,-671.5 -453.92,-1011.8 221.92,27.1 352.72,117.2 455.53,247.7 149,189.2 261.63,390.1 107.07,644 180.8,-38.2 205.31,-28 288.38,104.4 302.03,481.4 106.85,1059.5 -423.42,1260.6 -105.77,40.1 -158.77,5.6 -199,-95.8 -126.53,-318.8 -259.9,-634.8 -391.07,-951.8 -121.99,-294.7 -147.94,-592 -14.46,-889.6 69.32,-154.6 137.47,-169.4 226.35,-28.5 149.64,237.2 276.1,489.1 404.54,720.8 z m 31751.82,-869 c 183.1,304 248.2,602.8 145.1,905.3 -131.5,386.2 -298.4,760.6 -461.2,1135.3 -17.4,40.3 -119,81.2 -163.7,66.7 -497.6,-161.2 -722.6,-685.8 -500.7,-1157.5 60.5,-128.6 125.8,-266.2 357,-182 -155.8,-232.2 -79,-408.2 32.1,-577.2 108.7,-165.3 247.8,-287.6 474.3,-326.7 -95.7,195.6 -189,355.6 -253.3,526.5 -63.5,168.8 -97.7,348.6 -144.8,523.5 122.8,-323.1 231.9,-644.5 515.2,-913.9 z m -2677.3,2630.3 c -113.7,-245.5 -51.5,-445.5 -40.1,-642.6 10.5,-182.2 97.3,-302.6 276.4,-362 247.3,-81.9 389.9,-261.3 461.9,-510.1 104.5,-360.9 236.9,-713.7 220.4,-1100.5 -3.2,-74.5 41.7,-180.6 99.4,-217.8 38.8,-24.9 148.3,32.8 210.4,76.1 177.1,123.5 346.1,258.5 498.4,373.9 -107.6,373.3 -213.4,738.3 -317.8,1103.6 -41.9,147 -122.2,259.7 -279.8,287.5 -461,81.3 -739.8,390 -970.2,763 -41,66.5 -89.1,128.7 -159,228.9 z M 6724.66,13254.9 c 165.67,-122.8 341.01,-260 524.73,-384.8 56.11,-38.1 151.51,-76.1 199.35,-53 51.31,24.8 96.36,122.4 94.75,187 -9.19,367.9 113.77,706.1 204.35,1053.8 76.7,294.3 235.48,486.8 519.41,600.7 90.65,36.4 188.14,146.6 211.35,240.6 43.69,176.9 40.28,366.4 46.16,551 1.63,51.4 -32.84,104 -67.6,205 -76.78,-109.6 -128.77,-175.4 -171.88,-246.6 -227.94,-376.6 -512.36,-678.1 -972.47,-756.8 -138.37,-23.6 -219.8,-117.2 -257.55,-246 -112.86,-385.1 -221.87,-771.3 -330.6,-1150.9 z M 37099.9,7877.5 c 15.4,-0.6 30.7,-1.2 46.1,-1.8 31.5,266.4 63.1,532.7 94.6,799 4.2,-0.4 8.4,-0.7 12.6,-1.1 -12.5,-222.8 -25,-445.6 -36.8,-655.9 129,76.9 241.7,144.2 354.3,211.4 10.6,-10.8 21.2,-21.6 31.8,-32.4 -376.3,-185.6 -449.8,-508.9 -422.7,-867.6 96.6,142.5 198.2,292.2 299.8,442 -46.3,-210.6 -105.5,-407.2 -188.9,-592.8 -110.9,-247 -25.3,-482.2 13.3,-725.1 64.9,186.8 105.6,376 143,565.9 62.2,315.8 162,618.8 411.6,834.9 219.5,190 234.9,431.6 176.7,668.4 -116.9,475.2 -406.8,860 -721,1242.7 -83.6,-150.8 -141.2,-302.4 -239.1,-420.6 -152.1,-183.4 -147.6,-406.2 -138.6,-603.7 13.3,-289.6 105,-575.7 163.3,-863.3 z M 5687.9,10997 c 0,-36.2 2.91,-47.3 -0.42,-55.9 -127.27,-331 -384.65,-458.1 -721.47,-454.5 -124.63,1.3 -231.9,-24.7 -277.7,-153.8 -120.75,-340.3 -98.77,-670.7 263.84,-836.5 94.77,-43.3 116.04,-102.3 86.79,-194.6 -37.88,-119.6 -75.65,-239.3 -107.65,-360.5 -30.28,-114.8 -53.05,-231.5 -79.13,-347.4 65.79,89.2 83.1,194.7 132.28,282.3 70.44,125.4 141.92,266.8 251.67,350.8 547.49,419.1 756.39,995.5 803.11,1651.9 5.86,82.3 -6.78,186.6 -53.6,248.3 -136.97,180.3 -295.55,344.2 -449.11,518.4 -308.75,-317.5 -435.54,-699.3 -588.31,-1073.2 365.23,-64.2 539.39,189.6 739.7,424.7 z m 33196.9,-440.6 c -162.8,385.4 -272.5,776.9 -589.5,1093.4 -156.1,-181.8 -309.9,-356.2 -457.1,-536.2 -32.3,-39.5 -57.3,-98.7 -57.4,-148.8 -0.5,-618.1 157.7,-1181.7 635.9,-1603.5 205.2,-181 402.2,-349.7 449.2,-635.3 3.5,-20.6 27.4,-37.9 41.9,-56.7 -3.7,108 -25.6,208 -51.2,307.1 -27.3,105.6 -61.6,209.4 -86.1,315.5 -16.8,72.8 -32.3,136.2 66,188.6 321.9,171.6 398.4,338.2 348.8,694.7 -31.1,223.1 -116.7,299.9 -341.4,310.4 -70.7,3.4 -141.8,9.1 -211.6,20.2 -248.9,39.4 -437.5,231.7 -483.1,499.2 178.2,-255.4 362.6,-484.6 735.6,-448.6 z M 7112.97,20677.2 c -167.81,-120.1 -380.01,-604.4 -363.5,-914.1 11.97,-224.5 -24.33,-430.2 -121.08,-633.7 -34.45,-72.5 -33.28,-178.3 -10.62,-258.2 47.69,-168.1 44.32,-321.5 -49.39,-471 -46.29,-73.9 -92.25,-148.3 -132.84,-225.4 -71.36,-135.5 -47.16,-330.5 50.92,-446.4 114.26,-135 234.25,-124.6 297.81,38.5 94.86,243.4 187.11,488.9 259.37,739.6 75.99,263.6 70.03,529.1 -65.52,779.6 -11.52,21.3 -15.39,46.8 -22.81,70.3 18.29,6.2 36.58,12.4 54.87,18.7 47.84,-145.2 114.56,-287.4 138.25,-436.4 23.94,-150.7 5.28,-308.2 5.28,-462.7 20.65,-5 41.3,-10.1 61.95,-15.1 52.95,114.9 133.59,225.3 153.41,345.6 49.57,301.1 203.62,512.7 447.81,690.3 333.26,242.5 314.6,521.5 -26.69,743.9 -221.49,144.4 -444.43,286.6 -677.22,436.5 z M 23442.2,14995.8 c 78.2,523.4 -188.2,1309.9 -585.1,1737.9 -190,204.9 -230,207 -424.9,8.9 -432.1,-439.2 -561,-996.5 -608.6,-1583.6 -2.3,-28.4 24.2,-66.8 48.3,-87.9 39.6,-34.7 88.2,-59.1 138.8,-91.6 19.9,27.5 45.7,63.3 79.6,110.4 19.8,-55 33.6,-93.2 53.7,-149.3 42.3,58.3 70.9,97.8 106.9,147.4 32.9,-49.8 56.1,-85 85.8,-130 28.8,45.1 48.3,75.8 70,109.9 33.5,-37.7 62.4,-70 96,-107.7 22.4,44.5 37.8,75.2 58.3,115.8 39.3,-44.5 69.2,-78.3 104,-117.7 27.8,45.6 48,78.9 77.6,127.6 34.2,-49.8 58.1,-84.5 84.4,-122.9 30.4,47.2 53,82.4 90.2,140.2 29.7,-64 45.7,-98.3 73.4,-157.8 54.8,175.4 110.4,149.6 158.7,3.6 29.6,56.1 47.5,90.1 74.4,141 37.8,-51.2 63.6,-86.2 95.7,-129.8 22.2,42.3 40.2,76.4 66.6,126.6 24.5,-39.8 39,-63.1 56.2,-91 z m 13438.1,4383.5 c -133,-250.8 -189.9,-515.8 -117.7,-789 73.6,-278.5 168.7,-551.6 263.8,-823.9 18.7,-53.7 83.8,-133 120.6,-129.4 64.9,6.2 141.9,54 182.9,107.9 124.7,163.9 123.9,323.4 -19.5,511 -165.8,216.9 -213.7,432.1 -85.8,683.5 23.1,45.5 -1.6,120.8 -16.7,179.1 -43.1,166.8 -141.6,335.5 -129.8,497 27.4,376.8 -130.5,678.3 -308.7,980.2 -60.5,102.4 -122.5,85.3 -207.6,7.8 -115.4,-105.1 -249.3,-190.6 -378.8,-279.5 -94,-64.5 -202.4,-110.3 -289.1,-182.8 -183.7,-153.6 -195.9,-345.3 -42.2,-529.3 45,-53.9 97.9,-106.1 157.6,-141.8 246.2,-147.6 388.8,-357.8 425.5,-644 8.8,-68.5 36.8,-138.5 71.7,-198.7 42.3,-73 101.3,-136.5 153,-204 14.5,8.6 29,17.1 43.5,25.7 -12.5,162.6 -32.6,325 -35.5,487.7 -3.3,177.1 83.3,319.8 212.8,442.5 z M 5323.92,20798 c -154.75,-205.1 -300.22,-415.7 -463.99,-610.9 -260.07,-310 -309.26,-688.2 -127.77,-1049.7 122.04,-243 229.65,-493.3 351.72,-736.4 58.09,-115.7 120.46,-235.1 206.62,-329.3 119.71,-130.9 224.68,-109.2 279.47,58 96.7,295.1 250.21,554.7 438.02,798.2 161.36,209.3 167.47,430.5 34.21,656.3 -237.97,403.3 -476.89,806 -718.28,1213.8 z m 33188.18,-13.5 c -245,-403.9 -488.9,-804.2 -730.8,-1205.7 -143.6,-238.2 -121,-468.8 45.7,-685.9 190.1,-247.6 372.6,-497.6 453.5,-807.3 30,-114.9 122,-130.9 202.2,-62.9 80.9,68.6 157.5,154.3 204.8,248.2 156.8,311.2 302,628.2 447.1,945.1 135.9,297 113.3,587.3 -75.5,852.8 -170.1,239.2 -356,467.1 -547,715.7 z M 23343.9,9067.1 c 0,429.6 -22.9,840.3 5.7,1247.4 37.3,532.3 -233.6,876.7 -626.8,1164.6 -28.6,20.9 -89.2,37.7 -111.3,22.4 -344,-238.3 -657.3,-503.5 -662.8,-970.5 -5.1,-426.1 0.8,-852.4 1.8,-1278.7 0.2,-58.6 0,-117.3 0,-185.2 471,0 922.2,0 1393.4,0 z m 16530.2,7004 c -359.7,-65.5 -558.4,105.3 -681.6,399 -51.9,123.6 -160.2,178.4 -279.1,145.4 -115.9,-32.2 -245.2,-84.1 -323.8,-168.9 -173.2,-187 -326.7,-394.2 -472.1,-604.4 -125.6,-181.7 -38.8,-770.6 89.9,-950.4 127.6,-178.2 234.9,-375.9 319.7,-578.2 75.2,-179.2 100,-378.9 160.7,-565.1 47.3,-144.9 137,-172.3 242.6,-65.2 93.2,94.6 172.9,211.5 228.2,332.5 85.8,187.7 135.3,391.9 219.8,580.3 79.5,177.2 184.2,343.1 277.5,513.2 -202,175.3 -223.1,250.5 -102.9,404 39.8,-124.1 107.6,-221.6 247,-169.6 144.4,53.7 184.3,174.8 155.3,320.8 -25.3,127.5 -50.9,254.9 -81.2,406.6 z M 4127.24,15104.6 c 276.55,-295.3 374.07,-662.1 501.47,-1016.3 39.88,-111 100.81,-220.2 175.81,-310.6 54.8,-66 154.43,-143.8 222.91,-134.5 58.05,8 108.6,129.1 146.54,207.8 30.1,62.4 34.74,136.8 53.01,205.3 84.39,316.2 153.81,639.4 416.34,871.4 22.31,19.7 30.6,56.9 41.88,87.2 149,401.2 181.97,784.6 -157.33,1119.3 -85.03,83.8 -149.82,187.9 -232.24,274.8 -55.7,58.8 -120.96,112.2 -190.67,153.1 -224.78,132 -395.93,84 -507.15,-152.9 -109.2,-232.6 -276.77,-356 -537.21,-355 -39.09,0.2 -105.71,-31.3 -112.9,-59.9 -35.69,-142 -81.55,-289.8 -71.02,-431.6 5.77,-77.5 103.09,-173.5 182.98,-213.7 97.1,-48.9 153.18,43.4 188.21,130.4 7.16,17.8 23.02,32.1 36.99,50.9 108.38,-174.9 78.69,-259.3 -157.62,-425.7 z M 7851.1,11876 c 242.17,54.9 484.13,161.7 657.32,365.1 203.78,239.4 403.74,488.4 561.29,759 166.29,285.5 352.93,520.6 680.16,621.4 42.1,13 92.92,80.2 93.56,122.9 0.68,46.2 -43.32,106.1 -85,136.6 -55.47,40.5 -127.53,58.3 -197.73,88.1 31.55,41.7 59.66,78.9 95.28,126 -60.38,57.4 -106.93,124.2 -170.87,158.5 -233.39,125.3 -290.45,312 -270.04,568.1 19.88,249.3 -16.26,503.1 -29.83,799.1 48.04,-96 75.23,-150.4 106.07,-212 24.35,63.1 43.27,112.2 73.22,189.8 25.92,-97.7 43.75,-164.8 72.48,-273.1 17.28,129.7 29.31,220 44.68,335.3 41.66,-86.9 70.65,-147.4 99.64,-207.8 12.42,1.7 24.85,3.5 37.27,5.3 7.76,91.7 15.53,183.5 26.51,313.2 -142.21,0 -332.83,54.1 -389.19,-9.9 -183.93,-209 -323.97,-458 -470.03,-698.2 -54.38,-89.5 -66.14,-190.8 109.01,-174.2 -106.98,-250.8 -293.19,-392.7 -512.16,-484 -276.23,-115 -408.26,-315.6 -416.51,-605.2 -13.21,-463.4 -16.05,-927.3 -36.14,-1390.5 -7.64,-176.1 -50.83,-350.6 -78.99,-533.5 z M 6174.77,6142.4 c 769.07,136 1523,269.2 2250.24,397.8 9.46,119.1 27.19,235.5 23.98,351.2 -1.41,50.9 -35.05,134.2 -71.77,145.6 -330.26,102.2 -475.31,354.7 -539.79,662.6 -50.78,242.4 -187.51,385.6 -418.87,450.6 -222.85,62.6 -346.79,229.1 -361.24,440.2 -31.84,465.2 -377.4,768 -535.76,1178 -424.32,-450.9 -688.87,-923.7 -795.89,-1458.9 -96.85,-484.3 -82.11,-953.5 228.43,-1378.1 77.2,-105.6 111.91,-247 147.14,-377.2 36.77,-135.8 50.6,-277.9 73.53,-411.8 z m 3423.91,1977.5 c 178.67,-20.9 328.12,98.3 326.14,248 -16.91,1283.6 -36.23,2567.2 -55.29,3850.8 -0.46,30.8 -6.31,61.5 -12.48,118.4 -83.79,-55.2 -157.15,-91.5 -215.45,-144.4 -180.15,-163.3 -373.19,-210.3 -617.9,-154.1 -115.14,26.4 -279.12,-18.5 -378.1,-90.3 -268.36,-194.5 -549.55,-354.3 -864.7,-454.5 -212.2,-67.4 -295.99,-220.1 -305.76,-433 -14.84,-323.8 140.98,-568.8 331.49,-812 213.84,-273 400.14,-567.5 600.69,-851 19.14,-27.1 53.48,-59.5 82.22,-60.9 128.56,-6.6 257.65,-2.9 394.3,-2.9 -8.58,166.9 -15.9,309.3 -23.22,451.8 7.51,0.5 15.02,1 22.52,1.5 17.65,-144.7 35.3,-289.5 53.58,-439.4 63.22,-9.6 119.92,-18.2 210.97,-32.1 -184.55,-188.1 -115.45,-384.3 -60.93,-576.2 51.25,-180.4 33.18,-396.4 237.73,-527.8 36.39,112.9 65.42,203 100.73,312.5 41.3,-142.1 -101.58,-305.3 88.42,-398.9 48.84,122.4 90.25,226.2 131.66,329.9 8.86,-3.8 17.72,-7.6 26.58,-11.4 -24.22,-107.2 -48.45,-214.4 -73.2,-324 z m 5298.42,6880.2 c 263.6,-555.2 648.7,-1013.8 1099.2,-1471.9 -10.1,168.8 -25.2,298 -23.5,426.8 1.8,135.3 -56.1,213.4 -155.1,311.1 -231.7,228.5 -580.1,358.2 -466.4,848.7 112.5,485 60,1010.9 57.7,1518.8 -1.6,358.5 -28.5,368.1 -390.9,373.2 -25.2,0.3 -50.4,5.7 -134,15.7 84.4,87.9 130.4,159.6 195.8,199.1 158.6,95.7 329.2,171.6 488.6,266.1 49.7,29.4 107,89.7 112.5,141 12.6,118.1 29.5,254.9 -16.9,355.9 -82,178.5 -29.8,275 111.9,382.3 142.9,108.3 106.8,321.2 -50.6,411.2 -19.9,11.3 -46.3,44.6 -41.6,58 8.2,23.9 34.8,47.7 59.4,58 33.1,13.9 71.5,15.1 99.2,20.2 0,122.1 0,233.3 0,348.3 -382.1,17.2 -753.3,64.3 -1092.6,-171.3 73.6,-45.7 136.7,-84.9 237.6,-147.6 -89.7,-10 -135.8,-18.4 -182.1,-19.6 -251.2,-6.7 -503,-2.9 -753.5,-19.1 -519.9,-33.6 -1036.8,-90.4 -1494.2,-372.8 -95.8,-59.2 -223.7,-126.5 -254.5,-217.8 -54.9,-162.5 -158.7,-187.1 -294.3,-200.5 -41.2,-4.1 -80.8,-25.3 -128.8,-41.2 19.4,-82.7 41.9,-155.7 53.1,-230.4 33.3,-222.9 136.8,-382.1 340.5,-502.1 322.2,-189.7 625.5,-411.7 950.9,-629.6 -166.2,-117.2 -321.8,-216.9 -464.2,-332.9 -50.7,-41.3 -103.6,-126.6 -96.2,-184.1 29.7,-229.8 -84.5,-348.1 -280.4,-414.5 -121,-41 -122.2,-118 -79.1,-235.4 25.2,55.8 42.9,95.1 76.8,170.1 14.1,-85.7 21.9,-133.1 34.4,-209.6 37.3,55.2 56,82.8 74.7,110.5 6.9,-2.3 13.9,-4.7 20.8,-7.1 -12,-65.4 -24,-130.8 -39.1,-213.2 52.2,62.6 92,110.2 155.4,186.1 0,-110.8 0,-183.9 0,-285.2 130.6,0 250.8,12.2 367.6,-2.5 281,-35.3 512.1,44 709.8,249.4 126.5,131.5 271.7,245 427.7,383.7 37.6,-290.8 242.7,-287.5 433.5,-260.7 166.8,23.4 327.4,91.4 488.1,138.9 -43.7,-131.4 -158.6,-215.8 -302.8,-235.7 -165.9,-22.9 -340.3,-37.7 -503.7,-10.9 -205.2,33.6 -468.6,-131.2 -541.4,-317 143.7,-102.5 288.7,-205.9 432.3,-308.4 98.6,44.4 204,91.8 309.4,139.2 7.3,-12.2 14.7,-24.5 22,-36.8 -98.6,-73.4 -193.7,-152.4 -298,-216.7 -30,-18.5 -100.5,-11.4 -128.2,12.3 -409,350.4 -860,238.2 -1306.7,116.2 -162,-44.3 -93.4,-199.1 -95.5,-310.1 -2,-110.9 82.7,-123.7 171.5,-127.4 98,-4.1 197.3,-6.6 292.9,-25.6 124.8,-24.7 174.5,-90 181.8,-161.2 -146.4,28.4 -304.8,65.5 -465.3,86.5 -49.4,6.4 -104.5,-31.4 -157.1,-48.9 39,-35.4 77.9,-70.9 124.1,-112.9 -157,-12.4 -359,87.5 -423.8,-157.6 89.2,-147.5 218.9,-122.4 358.5,-96.5 -74.1,-43.9 -152.3,-76.4 -226.6,-69.3 -228.3,22 -356.7,-85.3 -362.9,-315.7 -8,-295 -20.4,-589.9 -30.1,-884.8 -1.9,-57.4 -0.3,-114.8 -0.3,-171.6 225.7,-11.8 432.7,-27.8 639.9,-31.3 109.4,-1.9 157.5,-37.6 156.7,-152.1 -1.1,-145 12.5,-290.1 19.6,-432.7 199.3,0 376.9,0 560.2,0 0,164.5 9.2,317.7 -2.9,469.1 -9.8,122.5 -15.9,261.4 -77.6,358.9 -61.6,97.5 -190.1,152.5 -299.7,233.8 799.5,466 1359.1,1169.3 1796.5,2003.2 z m 19218.2,-2443.6 c 99.5,-102 176.4,-193.6 269.1,-264.4 17.3,-13.2 98.2,56.7 182.1,108.1 -102.6,37.3 -155.3,56.4 -192,69.7 17.7,80.2 32.1,145.2 48.7,220.4 70.7,-115.7 128.3,-229.5 206.5,-326.8 25.7,-32 112.6,-42.9 157.6,-26 115.6,43.3 157.1,184.5 101.4,299.1 -50.1,103 -112.9,201.2 -152.2,308 -125.8,341.4 -359.9,543.7 -717.3,624.3 -148.6,33.5 -285.4,119 -427.6,180.9 172,-27.8 327.5,-95 489.8,-133.2 322,-75.8 528.2,-265.5 683,-557.2 149.7,-282.1 341,-544.7 534.3,-800.5 169.7,-224.6 415.9,-340.3 663.2,-391.6 -20.9,220.3 -51.8,438.6 -60.1,657.7 -14.3,376.5 -15.3,753.6 -20.4,1130.4 -5,362.7 -120.6,646.1 -498.8,776.1 -108.2,37.2 -203,127 -290.1,207.6 -60,55.5 -96.1,136.7 -156.4,226.7 173.2,-5 168.7,78 134.7,172.5 -157.8,438.6 -463.6,772.6 -783.7,1094.7 -64.5,64.8 -142.7,120.6 -223.7,163.5 -146.1,77.5 -310.1,117.2 -391.8,293.1 -27.8,59.9 -129.9,96.5 -205.4,120.8 -155.4,50.1 -313.6,100.5 -474.5,121.4 -157.8,20.5 -320.2,4.5 -503.4,4.5 92.2,-348.1 177,-674.9 265.8,-1000.5 35.8,-131.3 75.1,-262.3 124.9,-388.7 12.7,-32.4 71.6,-46.5 109.3,-69.1 19.2,33.7 50,65.7 55.2,101.5 11.6,78.9 10.2,159.7 14,238.8 169.4,0 323.3,0 468.4,0 0,-330.9 0,-644.9 0,-964.5 60.6,-7.8 122.1,-15.6 189.4,-24.3 -28,-136.8 -51.6,-250.6 -215.5,-273.7 -44.3,-6.2 -89.8,-89.3 -111.8,-146 -30.8,-78.9 -40,-166.3 -57.7,-246.9 -84.7,-6.1 -158.6,-11.4 -250.6,-18 0,-100.1 4.3,-187 -0.9,-273.3 -11,-182.2 -29.1,-361.1 -208,-473.1 -26.9,-16.8 -40.3,-72 -41.5,-110.1 -16.2,-513.3 -29.4,-1026.7 -41.8,-1540.2 -0.8,-32.7 11.6,-65.8 27.6,-150.4 118.1,208.4 211.4,373.1 304.7,537.7 30.6,-353.4 32.1,-695.8 28.7,-1038.1 -0.4,-41 -14.9,-96.1 -43.4,-120.2 -122,-103 -109.4,-237.5 -109.5,-374.1 0,-97.8 -12,-195.9 -23.4,-293.3 -23.6,-200.8 -50.5,-401.2 -81.6,-645.7 120.8,243.9 220.5,445.2 320.2,646.4 14.9,-5.6 29.8,-11.3 44.7,-16.9 -171.3,-374.5 -344.5,-748.5 -301.1,-1193.3 255.1,142.2 153,385 234.2,603.7 20.1,-72.3 27.3,-102.6 36.9,-132.2 20.9,-64.9 -12.4,-180.9 107.8,-156.1 36.4,7.5 67.1,105.1 77.4,165.3 47.5,277.1 86.9,555.5 129.1,833.5 14.2,-1.7 28.3,-3.4 42.4,-5.1 -12.7,-333.9 -97,-667.8 -50,-1001.7 23.5,-0.8 47,-1.6 70.5,-2.4 0,202.9 0,405.8 0,608.7 95.2,-206.1 -52.1,-456 165.4,-651.8 79.2,95.2 147.2,177.1 215.2,258.9 6.9,-5.4 13.9,-10.9 20.8,-16.4 -41,-80.3 -82,-160.7 -130.3,-255.5 146.5,-65.7 282.9,-126.9 398.3,-178.6 316.3,249.1 191.8,586.6 253.9,883.3 14.2,-134.6 28.4,-269.2 44.8,-424.9 129.8,187.7 243.6,352.4 357.5,517.1 7.2,-5.1 14.4,-10.2 21.7,-15.3 -108.3,-215.2 -216.6,-430.4 -348.9,-693.3 279.3,0 511.1,-1.8 742.8,2.7 22.9,0.4 56,34.2 66.1,59.8 136.2,344.1 388.5,603.3 629.9,871 172.5,191.3 288.1,409.2 314.8,670 28.4,277.8 -69.3,451.1 -332.1,545 -304.6,108.8 -594.8,233.8 -852,441.2 -98.3,79.4 -271.8,135.4 -388.7,107.8 -253.3,-59.9 -435.8,8.3 -599.3,187.8 -21.9,24 -45.6,51.4 -74.3,63.5 -185.2,78.2 -136.5,257.9 -171.8,402.8 43.3,-58.6 86.5,-117.2 131,-177.4 31.3,29.3 52.6,49.3 47.8,44.8 z m 6784.3,-6709.4 c -24.9,31.3 -49.8,62.5 -74.7,93.7 -14.9,-5.8 -29.8,-11.7 -44.8,-17.5 58.6,-204 117.1,-408 175.6,-612 12.7,3.9 25.4,7.7 38.2,11.5 0,80 0,160 0,239.9 25.1,-36.9 50.1,-73.8 96.7,-142.3 -27.2,304.2 -50.9,570.1 -75.7,848.6 -164.5,-116 -195.9,-253.7 -115.3,-421.9 z m -1586.1,102.5 c -59.8,-93.4 -119.6,-186.8 -181.1,-282.9 61.6,-58 121.2,-72.3 146.5,33.5 19.4,81.3 23.5,166.2 34.4,249.5 24.8,47.6 49.7,95.2 74.6,142.7 -9.6,5.5 -19.2,10.9 -28.9,16.3 -48.4,-42.7 -96.8,-85.4 -145.3,-128.1 35.8,81.1 88.6,143.6 134.9,210.6 43.5,63 80.1,130.9 125.9,206.8 -287.8,-20.7 -278.3,-260.3 -369.2,-416.1 -31.8,-54.6 -33.6,-126.6 -58.4,-228.7 112.8,83.1 189.9,139.9 266.6,196.4 z M 490,18580 c 0,87.5 0,174.9 0,262.4 172.996,-145.6 359.215,-245.3 597.83,-193.1 143.79,31.4 290.6,49 434.68,79.3 177.21,37.3 182.35,71.9 97.77,227.8 -114.36,210.9 -212,430.8 -316.82,646.9 107.04,-83.7 185.11,-181.8 264.9,-278.4 115.37,-139.7 249.15,-221.8 444.6,-234.9 314.67,-21 628.83,-69.9 939.22,-128.2 257.77,-48.5 358.47,24.3 330.91,289.7 -7.66,73.8 -44.11,144.3 -65,216.9 -45.96,159.9 -87.95,321 -137.06,479.9 -14.02,45.3 -37.33,97.2 -72.88,124.9 -133.93,104.3 -276.53,197.5 -411.1,301 -24.24,18.7 -44.94,74 -34.92,99.9 67.08,173.2 -42.95,231.8 -169.38,294 -178.07,87.5 -196.57,142.4 -133.81,366.7 0.78,-167.7 21.92,-298.9 216.11,-310.9 0,61 0,116.1 0,177.4 58.2,-149.3 113.26,-290.5 168.32,-431.8 23.17,2.1 46.34,4.1 69.51,6.2 21.44,111.3 42.89,222.6 59.66,309.6 113.47,-157.2 13.1,-298.7 -99.16,-444.6 73.5,-91.3 141.5,-175.6 209.5,-260 17.1,15.2 34.2,30.4 51.29,45.6 11.16,59.5 22.32,118.9 39.88,212.5 40.45,-112.4 68.61,-190.7 96.78,-268.9 21.29,6.8 42.58,13.6 63.88,20.4 -51.03,193.6 -102.05,387.1 -158.54,601.4 55.78,-83.6 98.31,-147.3 142.93,-214.1 57.91,36.1 100.09,62.5 154.65,96.5 -99.35,-278.6 -19.17,-901.8 122.86,-1038.7 110.32,69.9 213.5,153.9 330.87,206 312.1,138.3 381.62,325.3 188.06,611.6 -157.5,233 -291.04,469.9 -350.85,749.2 -38.36,179.2 -155.29,290.4 -355.05,307.5 -115,9.9 -244.26,-12.9 -340.05,82.3 -41.09,40.9 -74.3,90.3 -117.89,127.9 -200.98,173.5 -428.17,258.8 -699.26,185.2 235.68,103.6 449.31,75.3 646.58,-83.8 178.1,-143.7 379.45,-189.9 616.18,-140.1 -131.34,176 -252.49,336.4 -371.51,498.3 -120.78,164.4 -239.46,330.3 -362.23,499.9 49.76,-29.1 96.33,-56.2 146.08,-85.3 22.43,182.4 42.94,349.3 63.46,516.2 24.69,-73.3 27.42,-143.9 24.21,-214.1 -12.29,-269.5 66.14,-510.8 250.85,-704.8 164.57,-172.8 341.36,-335.8 525.83,-487.2 103.66,-85.1 209.73,-219.1 372.44,-147.7 175.88,77.2 142.36,257.7 157.75,402.3 20.57,193.3 54.37,398.5 -98.42,561.8 -123.87,132.3 -121.06,274.3 -45.95,422.6 83.04,163.8 64.3,314.1 -36.62,462.6 -32.07,47.2 -51.51,102.9 -76.72,154.8 264.65,-222.9 319.4,-217.2 510.78,54.4 67.14,95.3 138.58,187.6 208.05,281.3 6.3,-48 -15.87,-73.8 -27.87,-103.6 -84.48,-210.3 -174.75,-418.9 -244.05,-634.2 -16.07,-50 41.7,-123.7 65.49,-186.4 55.42,21 120.31,30.2 164.32,65.5 93.92,75.3 177.03,164 264.56,247.3 -143.82,-210.7 -302.03,-409.6 -469.1,-600.7 -88.01,-100.7 -84.81,-181 -3.93,-286.1 186.38,-242.2 359.05,-494.8 542.75,-739.2 71.86,-95.5 158.34,-180.1 265.41,-300.3 7.53,102.4 11.07,150.5 16.3,221.6 54.1,-133.7 98,-242.3 141.91,-350.8 66.94,359 -6.9,481.7 -299.5,588.4 12.32,164.6 24.3,324.8 36.28,484.9 9.37,-107.3 5.33,-215.2 11.56,-322.5 2.17,-37.3 19.58,-87.7 47.46,-107.2 93.81,-65.6 195.47,-120.1 320.5,-194.6 171,51 286.3,198 336.83,419.7 30.26,-69 51.36,-117.1 92.8,-211.5 116.85,113.9 223.3,202.3 310.04,307 76.22,92 56.67,186.3 -59.88,238.4 -88.31,39.5 -180.89,69.5 -272.69,104.2 28.07,161 -37.31,260.4 -205.61,325.9 -126.92,49.5 -249.56,109.9 -374.11,165.4 2.18,21.5 4.37,43 6.55,64.5 166.83,-142.1 232.51,-30.4 289.36,88.2 79.01,164.6 55.83,329.2 -14.29,490.7 -23.36,53.9 -48.6,106.9 -72.98,160.3 20.21,6.3 40.43,12.6 60.65,18.8 63.55,-227.7 136.19,-453.4 188.34,-683.7 63.52,-280.5 199.22,-502.6 446.68,-656.2 89.22,-55.4 180.34,-80.8 248.2,3.3 54.89,68 109.46,166 104.42,246.9 -13.08,210.7 -59.03,419.3 -87.26,599.4 117.68,-107.3 219.94,-82.3 280.38,111.1 18.65,59.6 11.43,128.6 9.72,193.1 -1.68,63.7 -11.35,127.3 -17.52,190.9 69.61,-198.1 110.3,-391.9 28.33,-601.4 -27.51,-70.2 23.05,-187.3 70.78,-262 16.78,-26.3 141.79,-8.8 200.09,21.7 174.67,91.4 340.81,199.2 510.28,300.5 -63.61,-82.3 -141.66,-146.2 -222.2,-206.8 -142.54,-107.2 -182.79,-233.4 -89.21,-380.6 62.89,-98.9 153.62,-183.8 244.3,-260.2 59.51,-50.2 148.74,-111.8 210.77,-99.3 63.08,12.7 109.13,110 170.4,179 -45.41,-173.6 -37.88,-336.8 149.12,-417.3 187.64,-80.7 328.39,29.1 451.91,148 101.2,97.4 206.29,201.4 270.97,323 60.86,114.5 71.12,255.8 97.87,362.4 27.69,-338.2 -2.6,-431.3 -251.07,-698.2 -62.96,-67.6 -131.86,-131.7 -206.14,-186.4 -217.76,-160.4 -358.14,-367.8 -462.61,-619.3 -74.66,-179.8 -200.91,-349.5 -338.98,-489.2 -226.83,-229.5 -227.18,-342.7 51.01,-519.1 165.6,-105 333.59,-206.6 494.8,-318 203.1,-140.4 382.24,-95.2 473.61,117.1 13.89,-182 28.69,-375.8 43.49,-569.7 -25.88,121.8 -51.75,243.7 -82.86,390.1 -120.06,-103.9 -237.28,-191.2 -337.12,-295.2 -134.68,-140.3 -246.07,-303.8 -385.6,-438.4 -165.76,-160 -291.23,-335.5 -347.67,-561.4 -35.59,-142.5 -84.57,-281.9 -132.24,-421.1 -42.28,-123.4 -36.87,-235.2 56.78,-334.3 175.39,-185.6 264.4,-373.8 148.98,-645.4 -72.79,-171.4 -77.26,-383.2 43.87,-570.5 58.35,119.5 113.89,241.3 118.74,365.1 8.47,216.2 97.71,347 306.81,402.8 274.8,73.4 461.06,250.2 596.41,498.1 69.85,128 94.22,221.3 -47.27,310.7 -50.79,32 -85.34,89.8 -127.3,135.9 81.6,-26.9 141.44,-89.8 213.04,-109.1 68.99,-18.7 182.27,-21.3 219.41,20.1 84.12,93.5 149.55,212.6 193.16,332 74.94,205.2 -111.71,281.2 -222.5,391.8 47.83,-25 96.35,-48.8 143.36,-75.2 181.88,-102.4 280.33,-85 372.39,103.8 74.42,152.5 115.87,321.2 160.41,449.5 18.41,-82.7 101.09,-75.9 199.35,-34.5 86.88,36.7 175.67,68.8 263.62,102.9 -65.58,-67.7 -145.05,-105.4 -215.2,-156 -91.52,-66 -197.48,-127.5 -258.37,-217.3 -121.97,-179.8 -220.33,-376 -321.81,-568.9 -22.14,-42.1 -39.94,-121.3 -18.4,-143.7 35.24,-36.8 108.54,-63.7 158.4,-54.5 117.03,21.5 228.58,71 344.4,101.3 130.12,34.1 262.48,59.7 393.87,88.9 -141.2,-84.9 -286.2,-141.3 -431.86,-195.9 -147.71,-55.3 -293.77,-116.8 -444.72,-161.5 -210.67,-62.4 -443.67,-304.5 -460.61,-521.3 -5.69,-72.7 23.11,-168.4 71.57,-220.9 102.54,-111.3 222.32,-209.5 346.06,-297.6 194.93,-138.8 210.53,-125.9 375.92,48.8 65.38,69.1 160.02,153.1 242.24,154.1 139.09,1.6 190.91,46.7 218.97,174.1 245.23,1113.2 504.03,2223.5 737.73,3339.1 77.7,371 94,754.9 138.2,1131.1 -261.8,78.7 -468,-6.8 -677.3,-117.2 21.4,63.4 44.9,123.9 89,152.3 149.5,96.2 299.8,196.7 462.8,264.4 100.4,41.7 149.6,81.7 153.3,191.7 11.7,349.5 32.7,698.7 46.4,1048.2 16.9,429.7 30.1,859.5 45,1289.3 7.2,0 14.4,0.1 21.6,0.1 26.9,-621.1 53.7,-1242.3 80.5,-1861.4 121,18.5 253.3,80.7 348.6,44.7 201.1,-75.8 325.1,-18.2 454.6,129.3 73.3,83.4 175.4,151.3 277.5,196.9 100,44.8 216.6,52.5 344.9,80.6 -125.6,-126 -217.5,-227.3 -319.2,-317.5 -85.6,-75.8 -116.3,-223.2 -272.2,-213 -17.9,1.1 -57.7,-43.1 -54.2,-50.5 64.7,-135.8 -97,-153.3 -120.6,-150.6 -78.7,9 -153.4,57.5 -228.1,94.1 -38.7,19 -73.1,62.6 -110.9,64.3 -96.5,4.3 -193.8,-8.7 -290.4,-14.7 0,-154.2 0,-298.3 0,-398.6 147.8,-72.1 268.9,-123.5 381.9,-188.7 103.3,-59.7 188,-43 290.9,7.3 85.9,42.1 211.5,88.8 284.2,55.8 219.8,-99.8 430.7,-225.8 627.8,-365.8 81.7,-58 119.7,-177.5 177.6,-269 -10.8,-9.2 -21.5,-18.4 -32.2,-27.5 -266,246.6 -564.1,352.6 -924.8,240.7 19.8,-71.7 34,-122.8 44.7,-161.3 -134.3,-37.1 -261.3,-72.1 -379.2,-104.6 -131.9,47.7 -269.3,97.4 -433.3,156.7 126.5,-1264.7 404.1,-2459.7 729.7,-3678.2 318.9,413.5 742.4,602.5 1183.6,755.9 227.2,79 398.2,207.4 533.9,407.4 80,117.8 203.3,208.9 317,299.8 32,25.6 98.5,8.1 149.2,10.4 -6,-60.7 5.2,-131.4 -22.8,-179.3 -27,-46.3 -101.7,-61.9 -142.2,-103.8 -70,-72.4 -147.2,-146.4 -189.6,-235 -58.2,-121.9 -11.2,-178.4 123,-160.9 162,21.1 324.7,46.6 482.9,86.5 513.1,129.3 1040.1,205.6 1349.6,745.4 140.1,244.1 286.9,456.5 238.8,746.2 -13.7,82 -45.1,161 -65.3,231 24.7,72.7 70.3,152.8 76.5,235.8 12.5,168.2 3.7,338 3.7,507.1 27.1,-81.7 34.6,-163.3 40.5,-245 6,-81.8 1.9,-165.4 17.6,-245.1 17.7,-89.5 52.7,-175.5 86.9,-284.3 -7.6,-3.7 -57.8,-28.3 -103.2,-50.5 -20.4,-297.5 72.2,-431.3 352.5,-472.6 61.7,-9.1 136.2,68.1 209.8,108.2 74.1,-106.4 93.5,-104.8 189.9,47.4 31.4,49.6 68.1,95.9 102.4,143.7 6.1,-4.4 12.2,-8.9 18.3,-13.4 -40.7,-83.7 -81.4,-167.5 -136.7,-281.2 192.1,8.6 348.4,15.6 504.7,22.6 -47.9,-29.8 -98.8,-43.4 -150.4,-53.1 -176.9,-33.1 -355.1,-60.4 -530.4,-100.6 -41.2,-9.4 -72.9,-60.6 -127.3,-108.9 -146.2,39.6 -398.9,-61 -405.8,-194.2 -9.2,-178.6 -2.3,-358.1 -2.3,-564.5 123.7,24.2 219.7,43 312.8,61.2 -16.4,-29.2 -34.3,-61.1 -55.1,-98.1 51.6,-31.2 95.8,-57.9 140,-84.6 -2.5,-8.6 -5.1,-17.2 -7.7,-25.8 -115,10.4 -230.1,20.7 -354,31.9 0,-111.3 0,-212.3 0,-312.7 59,-13.4 109.2,-24.9 159.4,-36.3 6.8,-15.7 13.5,-31.3 20.3,-47 -57.7,-36.1 -115.5,-72.2 -161.2,-100.8 -135.2,-362.4 193.8,-429.8 379.4,-573.6 -52.3,-139.6 -274,-153.5 -185.7,-360.9 54.6,153.5 156.8,126.5 267.4,101.3 124.9,-28.4 125.9,-122.1 129,-214.5 6.5,-196.6 0.2,-394 15.6,-589.8 4.9,-62.8 46.8,-140.8 96.9,-178.5 121.4,-91.4 261.4,-157.9 385.9,-245.7 52.8,-37.2 120.5,-105.3 117.2,-155 -3.3,-49.1 -80.4,-115.7 -138,-133.9 -105,-33.1 -219.5,-36.1 -351.8,-54.7 12,-209.2 24.2,-421.7 37.2,-648.8 493.2,128.6 951.8,251.1 1412.4,365.6 90.6,22.6 107.9,65.5 105.9,148.6 -5.9,245.5 -2.6,491.3 -6.5,736.9 -0.6,35.4 -20.3,70.8 -33,105.5 -29.3,79.5 -85,158.7 -84.5,237.8 1.2,176.5 -63,308.4 -182.7,434.4 -73.5,77.2 -152.3,187.6 -156.3,286 -15.8,387.3 -3.3,775.8 -0.1,1163.8 0.4,53.2 7.7,106.4 11.8,159.5 12.7,-0.5 25.5,-1 38.2,-1.5 21.7,-114.9 43.3,-229.8 65,-344.8 6,0.4 12,0.9 18,1.3 6.2,77.1 12.3,154.3 18.5,231.4 8.3,1.2 16.5,2.4 24.7,3.6 35.6,-166.4 71.3,-332.8 115.2,-538.1 24.5,170.9 43.2,301.9 62,433 11.2,0.3 22.4,0.7 33.6,1 29.8,-150.8 59.6,-301.5 89.4,-452.3 13.3,-1.3 26.5,-2.5 39.8,-3.8 22,166.9 44,333.8 72.5,549.8 28.3,-187.2 49.6,-327.9 70.9,-468.7 14.5,1.4 29,2.8 43.6,4.1 0,536.3 0,1072.6 0,1632.8 -164.9,0 -329.3,0 -497.8,0 249.9,595.2 498.4,1165.3 728.1,1742.8 112.5,282.7 248.7,574.5 272.7,870.5 75.8,930.8 111.5,1865.3 146.6,2798.9 18.4,489.7 3.2,980.6 3.2,1470.9 30.4,-0.1 60.7,-0.2 91.1,-0.3 0,-464.1 -7.7,-928.5 3,-1392.5 5.9,-256.5 148.8,-381.1 403.8,-359.6 171.3,14.4 339.6,64.1 509.3,98 4.6,-12.7 9.2,-25.3 13.8,-38 -211,-66.2 -418.1,-156.7 -634.2,-191.7 -219.3,-35.5 -302.4,-91.9 -289.2,-318.5 35.5,-610.9 86.5,-1221.2 108.7,-1832.6 11.5,-318.5 87,-615.1 206.8,-903 247.2,-594.3 502.4,-1185.3 754,-1777.8 22.4,-52.7 42.5,-106.4 73.3,-184 -189.6,0 -350.9,0 -530.8,0 23.6,-572.6 46.4,-1127.1 69.2,-1681.6 12.4,-0.2 24.8,-0.4 37.2,-0.6 21.7,157.7 43.4,315.4 65.1,473.1 8.6,-0.6 17.2,-1.2 25.8,-1.9 28.3,-161 56.5,-322.1 84.7,-483.1 13.1,0 26.1,0.1 39.1,0.1 31.6,181.8 63.2,363.6 94.9,545.4 7.7,0.6 15.4,1.1 23.1,1.7 21.1,-150.3 42.3,-300.6 63.4,-450.9 5.1,1.4 10.2,2.8 15.3,4.3 24.2,157.2 48.5,314.5 72.7,471.8 10.5,-1.5 21.1,-3 31.7,-4.5 5.6,-69.8 11.3,-139.5 16.9,-209.2 8.2,-1.6 16.4,-3.2 24.6,-4.8 24.3,99.7 48.7,199.5 73,299.2 12.3,-1.3 24.6,-2.5 36.9,-3.8 0,-355.7 0,-711.5 0,-1059.6 137.3,-11.4 252.7,-21 359.9,-30 76.6,-161.1 -68.7,-144.6 -141.9,-192.3 23.7,-327.6 133.3,-620.3 327.6,-934.7 21,174.8 36.3,302.6 52.9,440.6 96.1,0 181.1,0 266.1,0 5.4,18.6 10.8,37.2 16.3,55.7 -86.6,26 -173.3,52 -259.6,77.9 31.7,289.4 31.7,289.4 320.7,343.1 0,67.8 0,136.9 0,209.5 -48.2,7.8 -92.5,15 -142,23 6,77.3 4.5,143.9 18.2,207.1 10.5,48.6 36.8,131 61.7,133.2 149.1,12.8 120.3,109.2 113.3,205 -41.2,11.6 -80.9,22.7 -167.7,47 66.8,138.7 168.9,259.1 175.6,384.6 12,226.3 140,475.6 -71.6,683.5 -22.5,22 -31.3,73.8 -24.4,107.3 40.9,201 -46.6,342.3 -195,463.9 -67.2,55 -130.3,118.6 -181.9,188.1 -36.1,48.6 -69.3,113.8 -70,171.9 -5.6,486.4 -3.8,972.9 -2.8,1459.4 0.1,37.5 10.8,74.9 16.6,112.3 8.3,-0.8 16.6,-1.7 24.9,-2.5 15.9,-91.9 31.7,-183.8 47.5,-275.7 7.5,0.9 15.1,1.8 22.7,2.7 9.9,52.4 19.8,104.8 29.8,157.2 8,-0.5 16.1,-1 24.2,-1.5 29.3,-152 58.7,-304 88,-456 8.7,2 17.3,4 26,6 18.8,133.9 37.7,267.9 56.5,401.8 11.1,-0.3 22.2,-0.5 33.3,-0.8 24.6,-165.2 49.3,-330.5 74,-495.7 11.8,1.6 23.7,3.2 35.6,4.7 19.2,127.8 38.5,255.5 57.8,383.3 5.8,1.5 11.5,3.1 17.3,4.6 24.8,-124.9 49.5,-249.8 74.3,-374.6 13.3,2.2 26.7,4.4 40,6.6 0,749.4 0,1498.9 0,2271.6 -212.7,0 -421.1,0 -652.4,0 203.3,249.4 387,472.3 568.1,697.2 302.2,375.1 544,783 614.5,1267.3 87.3,599.4 169.3,1200 232.9,1802.3 50.5,477.3 70,957.9 103.3,1437 10.9,0 21.8,0 32.8,0 9.6,-59 23.2,-117.7 28.3,-177.1 67.9,-783.5 136.2,-1567 201.1,-2350.7 71.1,-859.1 352.8,-1627.9 953.4,-2263.9 86.2,-91.2 163,-191.3 243.1,-288.1 25.3,-30.6 47.3,-63.9 93.2,-126.6 -243.1,0 -453,0 -664.7,0 0,-730.5 0,-1438.2 0,-2145.9 6,-0.2 11.9,-0.5 17.9,-0.7 12.3,123.1 24.7,246.2 37,369.3 9.2,-1.2 18.5,-2.5 27.7,-3.7 22,-169.8 44.1,-339.6 66.2,-509.4 15.2,0.3 30.4,0.5 45.7,0.8 30.1,159.4 60.2,318.9 90.3,478.4 9.1,-1.4 18.1,-2.7 27.1,-4 15.4,-151.9 30.8,-303.8 46.1,-455.7 13.1,-0.4 26.2,-0.7 39.4,-1.1 28.2,191.6 56.4,383.1 90.6,615.5 44.5,-151.9 75.3,-256.7 111.4,-379.7 30.2,162.7 55.9,301 81.7,439.3 22.8,-2.4 45.6,-4.7 68.4,-7.1 0,-409.2 -0.4,-818.4 0.1,-1227.6 0.5,-493.2 4.6,-497.5 -359.8,-819.8 -95,-84 -116,-168.9 -111.9,-285.4 2.7,-75.6 -17.6,-160.1 -53.1,-227.1 -47.2,-89.1 -87.3,-563.5 -41.5,-650.5 58.5,-110.9 110.8,-224.9 178.9,-364.6 -247.5,-9.1 -147.4,-134.3 -150.6,-190.1 66.9,-51.7 140,-79.5 150.1,-122.3 20.3,-84.9 31.1,-245.9 1.7,-256.9 -179.6,-66.8 -90.4,-185.4 -91.3,-289.3 253.9,-13.7 260.7,-22.2 285.1,-348.3 -48,-5.5 -97.8,-5.6 -144.2,-18.3 -30.4,-8.4 -55.7,-35.2 -83.3,-53.7 28.5,-16.8 56,-45.4 85.7,-48 57.7,-4.8 116.6,5 174.6,8.6 47.4,-153.6 90.2,-292.6 133.1,-431.5 65.6,311.6 152.7,612.8 141,910.1 -21.7,550.4 101.8,1104.9 -71.5,1655.2 -53.5,169.9 11,377.1 79.1,570 76.3,216.2 77.9,461.5 94.7,695.4 36.6,511.4 62.3,1023.5 91.3,1516.3 -78.6,38.1 -128.5,62.3 -178.3,86.5 4.3,10.8 8.6,21.6 12.9,32.4 47,7 94,13.9 158.2,23.3 0,138 0,272.6 0,432.5 81.5,-171.1 -69.4,-377.3 108.6,-461.1 -26.5,-94.6 -73,-180.6 -70.6,-265.2 22.7,-796.8 53.8,-1593.4 83,-2405.6 63,7.6 106.4,12.9 153.4,18.5 -4.1,76.5 -15.1,137 -8.2,195.3 6.1,51 44.6,98.8 47.8,149.3 52.1,817.1 103.1,1634.4 146,2452 3.9,73.1 -50.5,149.2 -75.4,217.4 20.1,45.4 68.9,108.1 72.9,173.6 11.1,185.1 3.9,371.3 3.9,557 18.6,-0.4 37.3,-0.9 56,-1.4 0,-174.7 -7.3,-349.9 3.4,-523.9 4.6,-75.2 46.3,-148.2 67.4,-210.9 -20.2,-60.6 -65.6,-130 -62.3,-196.9 46.4,-923.7 99.6,-1847.2 151.7,-2782.6 89.4,7.7 141.8,12.2 183.9,15.9 9.9,200.3 15.8,387.8 29.1,574.8 17.7,249.6 44.6,498.6 58.3,748.4 2,37.2 -45.6,78 -72.4,115.5 -16.8,23.5 -52.4,44 -52.4,65.9 0,22.4 33.2,64 51.8,63.9 109.8,-0.2 102.9,74.6 103.2,146.4 1.4,284.2 8,568.6 -0.4,852.5 -2.4,79.8 -49.4,158.3 -76.9,240.3 161.2,25.6 49.3,196.8 84.2,271.5 22.4,-85.5 50.7,-193.4 82.4,-314.2 -107.1,-66.2 -100.7,-735.7 52,-1181.3 30.3,-2.9 65.2,0.7 94.1,-10.9 24.7,-9.9 56.8,-35.5 59.3,-57.3 2.5,-22 -26.5,-68.3 -42.7,-68.8 -119.5,-3.3 -91.6,-88.1 -85.4,-152.7 40,-416.4 83.3,-832.4 129.6,-1289.2 54.3,41.4 113.4,63.5 128.1,102.5 29.1,77.2 42.4,163.2 47.1,246.4 21,374.7 49.7,749.6 51.8,1124.6 5.4,940 -2.1,1880.2 -4.4,2820.4 -0.2,108.2 0,216.4 0,324.6 93.4,-361.6 463,-473.4 679.5,-735.5 -31.2,-6.1 -43.7,-12.9 -51.1,-9.3 -112.3,55.4 -223.2,113.9 -336,168.3 -188.7,91.1 -246.5,66.7 -243.6,-136.2 4.9,-343.7 18,-688.4 52.7,-1030.2 29.2,-287.6 194.6,-381.4 474.6,-294.3 114.1,35.5 221.8,91.6 332.4,138.3 8.5,-14.4 16.9,-28.8 25.4,-43.3 -203.7,-132.8 -403.5,-272.2 -612.5,-396.1 -143.9,-85.3 -239.2,-184.1 -220.6,-364.1 29.3,-282.4 26.7,-571.3 87.6,-846.4 56.3,-254.1 -21.2,-549.4 203.5,-759.4 8.3,-7.8 3.3,-31.4 2.1,-47.4 -12.4,-178.2 6.7,-350.1 -36.9,-536.7 -61.3,-262.6 -2.5,-553.1 5,-831.7 235.2,-122.1 94.2,-335.3 125.8,-507.8 80.5,-439.8 431.8,-771.7 914.4,-872.2 2.1,38 5.4,74.9 6,111.8 5.6,328.2 5.4,328.2 -303.2,417.6 -266.2,77.1 -312,138.9 -315.3,416.1 -4.6,382.5 -6.2,765.1 -18.5,1147.4 -7.6,235.3 -9.5,482 -329.9,567.1 69,64.6 109.6,107 154.6,144.1 235.9,194.8 476.5,384.1 708.7,583.1 459.7,394.1 708.3,901.6 797.5,1503.3 -96.4,26 -226.5,13 -194.1,164.7 49.6,232.8 104.4,464.5 157,696.6 93.2,-197.3 154.1,-392.9 208.4,-590.3 25.1,-91.4 100.6,-197.3 -49.7,-261.4 -12.8,-5.4 -10.5,-60.8 -5.5,-91.5 154.6,-947.3 639.4,-1645.7 1535,-2034.4 56.6,-24.6 109.8,-57 201.3,-105.1 -68.6,-17.2 -92.4,-23 -116.2,-29.1 -307.3,-78.7 -323.5,-98 -321,-408.7 3.6,-459 4.4,-918.2 16.1,-1377.1 3.8,-150.8 -58.6,-235.9 -193,-281.5 -108,-36.7 -216.4,-72.5 -325.6,-109.1 -4.5,-16.1 -12.9,-31.8 -12.5,-47.2 18.4,-759.4 36.8,-1518.7 58.7,-2277.9 1.1,-37.5 25.8,-98.3 52.9,-107.1 123.5,-40 128.4,-133.8 128.6,-235.9 0.8,-426.3 3.5,-852.7 3.1,-1279 -0.2,-167.8 135.3,-357.9 313.5,-422.6 10.9,29.9 21.7,59.9 32.9,89.7 78.6,208.9 203.6,286.4 417.1,241 44.8,-9.5 110.4,-67.7 112.4,-106.3 7.4,-143.2 -7.8,-287.5 -14.4,-431.3 -15.2,-5.4 -30.4,-10.7 -45.7,-16 -28.5,31.7 -55.1,65.5 -86.1,94.5 -35.9,33.5 -82.2,93.6 -112.3,87.2 -50.5,-10.7 -115.2,-57.3 -129.9,-103 -12.2,-38.2 26.1,-110.9 63.6,-143.5 118.5,-102.9 247,-194.1 391.5,-305.1 -61,-20.6 -109.6,-23.4 -137.5,-48.9 -89.1,-81.1 -225.2,-160.3 -243.9,-259 -44.7,-236.7 -32.8,-484 -44.1,-734.7 215.1,0 403.2,0 616,0 0,123.3 7.3,237.2 -1.7,349.8 -13,164.3 47.2,235 219,232.7 172.8,-2.3 346,22.7 529.1,36.4 0,234.8 2.1,457.6 -2.3,680.3 -0.6,30.9 -34.7,60.3 -50.5,91.8 -48.5,97 -119.4,190.5 -137.4,293.1 -23.9,135.9 -5.9,279.1 -5.9,420 -96,7.9 -169.9,14 -245.2,20.2 -18,102.2 -22.6,197.1 -54.2,282 -19.3,51.8 -82.3,127.1 -122,124.9 -191.4,-10.5 -218.3,116.9 -249.1,263.4 76.9,8.3 150,16.1 218.1,23.4 0,208.3 0,407.9 0,625.1 158.1,0 310.2,-8 460.5,4.6 50.1,4.2 124,51.8 139,95.9 120.9,355.8 230.5,715.4 342.2,1069.9 -148.7,115.3 -148.7,115.3 -310.9,43.4 -177.5,-78.7 -257.2,-59.3 -349.9,86.3 247.7,-60.1 455,63.6 671.6,144.5 109.7,41 104.8,107.8 44.1,189.6 -154.9,208.7 -363.7,263.8 -609.8,219.3 -51.4,-9.3 -104.4,-9.9 -191,-17.6 240.1,228.1 495.4,191.9 911.2,-100.1 31.2,159.2 61.3,312.9 91.5,467.2 -23.7,8.6 -38.4,17.3 -53.9,18.8 -43.4,4.4 -87.1,7.5 -130.8,8.2 -462.3,7.3 -914.2,-35.2 -1346.9,-222.7 -82.9,-35.9 -202.4,12.6 -305,22.2 10.5,90.4 1.3,189.6 36.3,269.3 49.5,112.6 37.7,197.8 -42.3,282.9 -36.2,38.6 -69.7,79.7 -112.2,128.7 255.7,-29.8 329.5,-148.9 264.5,-377.1 -15.3,-53.5 15.3,-120 24.9,-180.6 139.2,50.6 299.9,73.4 411.7,159.7 110.9,85.5 74.1,234.3 -16.9,338.3 -82.1,93.9 -172.6,184.7 -273.7,256.7 -175.3,124.8 -361.7,234 -543.5,349.7 103.6,-3.2 215.9,-12.3 290.1,-70.2 222.4,-173.5 440.3,-355.8 639.1,-555.4 105.1,-105.6 210.9,-181.2 354,-165.2 171.9,19.2 347,46 510,101.3 209.2,71.1 291.7,231.7 198.4,428.7 -169.7,358.1 -358,709.2 -564.5,1047.4 -135.1,221.1 -356.2,347 -618.9,391.1 -134.4,22.5 -266.4,59.5 -399.5,89.9 1.4,7.5 2.8,14.9 4.2,22.4 196.6,-10.9 393.1,-21.8 639.4,-35.4 -353.2,553 -755.1,1013.9 -917.3,1569.4 168.1,-248.6 347,-526.4 539.6,-794.3 183.9,-255.9 420.4,-476.3 505.7,-795.7 11.8,-44 49.5,-86.6 85.7,-117.5 392.4,-333.3 657.6,-754.8 860,-1221.9 28,-64.7 77,-120.3 142.6,-220.2 159.3,869.4 136.6,1699.9 211.1,2523.1 21.8,-360 32.5,-720 45.2,-1080 6.1,-171.4 34.1,-187.1 200.1,-139.1 296.9,85.7 555.3,225.3 729,493.2 24,37.1 60.8,65.9 117.2,125.4 -213.8,-433.9 -296.7,-515 -679.5,-686.6 -69.6,-31.1 -140.8,-60.7 -205.8,-100 -110.3,-66.7 -169.3,-157.6 -153.3,-298.5 27.1,-238.7 37.8,-479.2 58.5,-718.7 52.1,-604.4 53.6,-602.3 615.2,-835.8 64.2,-26.7 147.1,-84.6 160.7,-142.3 40.5,-172.3 157.9,-222.1 306.3,-247.2 247.2,-41.8 493.8,-86.6 741.4,-125.4 46.5,-7.3 104.2,-6.7 143.7,14.4 244.2,130.5 503.4,243.4 722,409.1 297.3,225.5 206.3,690.5 -147.9,827.5 -343.1,132.6 -692.2,249.4 -1038.7,373.2 160.7,4.3 316.1,-24 468.9,-62.6 89.2,-22.5 172.4,-77.4 261.9,-88 68.5,-8.1 159.9,11.8 207,55.7 25.3,23.6 -5.4,133.9 -38.2,188.7 -207.3,345.5 -353.5,748.8 -804.8,879.8 117.6,-27.5 216.9,-82.3 322.6,-117.7 49.8,-16.7 122,-12.3 164.6,13.9 24.4,15 15.4,93.6 11.3,142.7 -3.2,39.4 -21.7,77.5 -33.5,116.2 15.4,2.7 30.8,5.4 46.2,8.2 14.6,-119.2 36.4,-238.1 42.6,-357.7 19.7,-375.7 224.5,-534.1 534.4,-407.5 -196.3,-243.6 -183.9,-421.2 38.3,-652.1 72.1,-74.8 147,-91.5 233,-36.3 81.2,52.2 158.4,110.5 237.4,166.1 18.5,-19.6 36.9,-39.2 55.3,-58.9 -84.4,-60.7 -177.5,-112.8 -249.6,-185.7 -34.4,-34.8 -57.5,-124.7 -36.6,-163 128,-235.9 265.8,-467.1 550.8,-550.1 78,-22.6 164.2,-46.9 222.9,-97.8 67.7,-58.8 124.3,-141.8 157.4,-225.5 31.1,-78.5 15.6,-174.3 38.3,-257.7 22.4,-82 67.1,-157.9 102,-236.4 15.9,5.6 31.7,11.3 47.5,16.9 67.6,246.9 33.1,491.6 -53.8,727.6 -38.1,103.2 -55.3,199.4 22,273 282.2,268.5 276.2,565.4 109.6,886 -9.9,19 -15.2,41 -19.6,62.3 -53.8,264.4 -203.7,463.3 -409,632.4 -99.5,82 -177.1,190.1 -266.5,284.6 -125.9,133.1 -253.7,264.5 -401.6,418.5 -22.9,-185.7 -38.8,-314.4 -54.6,-443 0,208.7 0,417.4 0,626.1 78.6,-192.4 257.6,-284.5 420.5,-188.3 220.4,130.1 436.5,268.8 645.5,416.6 194,137.1 195.5,265 8.1,420.7 -182.6,151.7 -312.7,334.7 -378.8,561.2 -60.4,206.7 -180.5,368.7 -340.3,509.9 -138.7,122.6 -275.5,250.2 -395.3,390.6 -156.3,183.2 -179.6,318.3 -131.1,559.6 7.2,-384.3 240.8,-611.8 521.7,-796.5 213.1,-140.1 440.5,-4.4 439.6,246.5 -0.2,68.8 0,137.6 0,200.7 33.6,-80.8 51.9,-207.3 99,-219.1 72.2,-18.1 177,25.1 244.8,74.3 99.7,72.4 192.5,163.4 263.6,264 94,133 78.1,282.6 -57.1,359 -266.4,150.5 -345.6,386.7 -358.8,666 34.4,-101.6 55,-207.7 93.4,-306.9 26.1,-67.2 64.3,-142.2 119.7,-183.1 122.3,-90.5 255.1,-169.3 391.5,-237.1 60.5,-30 183.4,-52.1 202.7,-24.8 50.4,71.6 102.5,187.7 77.3,258.9 -87.3,245.9 -28.7,474.3 32.7,707.1 2.8,-64.7 -7,-128.5 -12.8,-192.7 -5.9,-65.2 -14.3,-131.1 -10.4,-196 12.6,-211.6 133,-290.9 339.3,-198.4 -184.2,-198 -116.4,-427.8 -136,-637.3 -7.1,-75.5 65.1,-186.4 133.7,-231.5 50.4,-33.2 166.6,-7.8 231.7,29.6 284.3,163.3 388.1,439.9 447.9,745.5 34.4,175.8 94.3,346.6 142.7,519.6 -103.2,-440.5 -45.7,-713.6 233.4,-802.3 -118.4,-47.6 -222.2,-71 -303.4,-127.1 -83.7,-57.9 -172.5,-136.7 -208.7,-226.6 -31.5,-78.4 -62.5,-118.1 -137.7,-142.6 -66.8,-21.8 -131.8,-53.3 -192.2,-89.5 -26.8,-16 -57.1,-53.9 -57.1,-81.9 -0.1,-144.1 221.1,-339.2 381.8,-339.5 18.2,52 36.8,105.7 46.4,133.1 67.6,-113.3 130.2,-244.2 217,-356.5 85.1,-110 182.9,-133.4 289.5,2.3 52.3,66.5 150.4,97 243.1,153.2 0,69.2 0,155.8 0,242.3 3.5,0 6.9,0.1 10.4,0.1 16.2,-103.3 32.4,-206.7 49,-312.3 -367.9,-169.8 -492.2,-417.1 -292.4,-619.7 14.1,117.4 27.1,226.8 40.2,336.2 5.2,-0.3 10.5,-0.6 15.7,-0.9 7.3,-61.6 14.5,-123.2 22.9,-194.9 91.4,68.1 190.1,113.9 248.8,190.4 178.7,233.5 338.8,481 512,718.8 192.6,264.3 194.6,264.3 -3.3,517.3 -129,164.8 -255.3,331.8 -382.8,497.8 103.9,-74 190.8,-160.5 285.1,-238.1 38.1,-31.3 115,-72.6 134.1,-57.7 40,31.1 81.2,101.9 72.5,146.7 -28.7,147.2 -71,293.4 -124.6,433.7 -40.1,104.8 -105.6,199.9 -159.8,299.3 111.1,-105.8 191.9,-229.1 280.8,-346.3 107.8,-142.1 210.3,-154.5 342.7,-35.6 52.3,46.9 82.8,118.1 123.2,178.3 -9.2,-77.8 -18.1,-167.5 -66.5,-222.6 -159.5,-181.9 -112.4,-364.8 -47.7,-564.6 27.2,-83.6 34.6,-219.6 -13.9,-273.6 -184.3,-205 -182.2,-442.1 -144.2,-679.3 20.8,-130.4 73,-297.2 169.2,-364.2 129.4,-90.1 272.6,37.2 370.3,134.4 189,188.1 341.1,417 543.6,587 241.2,202.4 215.3,455.1 215.2,714 -0.1,52.4 0,104.8 0,157.2 6.4,0.5 12.9,1.1 19.4,1.7 26.7,-185.3 53.4,-370.7 82,-569.1 49.8,36 86,62.2 132.6,95.9 -244.3,-336.4 -479.1,-659.8 -720.2,-992 164.9,-52.7 314.1,-31.7 455.6,55.8 92.9,57.4 182.2,121.3 277.8,173.5 141.7,77.3 316.2,72.3 457.5,-11.6 -268.8,76.7 -508.2,-13.7 -673.6,-199.4 -127.9,-143.7 -256.2,-198.3 -429.6,-199.6 -170.5,-1.2 -295.8,-86.9 -323.8,-246.8 -58,-332.7 -217.6,-612.5 -399.8,-886.2 -32.1,-48.2 -67.1,-117.6 -55.7,-166.7 24.4,-105 51,-237.8 125.9,-296.5 141.3,-110.7 317.2,-176.9 492.5,-268.9 163.3,116.2 130.5,315.5 138.8,494.2 8.3,178.9 -8.9,358.9 -14.3,519.2 80.3,-68.6 181.3,-74.6 268.1,69.4 -31.9,-99.5 -93.4,-180 -111.7,-269.5 -18.8,-91.5 4.8,-191.7 9.9,-288.2 14.9,-0.3 29.8,-0.6 44.7,-0.9 21.3,83.2 42.5,166.3 63.8,249.4 8.6,-0.8 17.3,-1.5 26,-2.2 14.6,-66.7 29.3,-133.3 44,-200 15.4,-13.4 30.8,-26.8 46.2,-40.3 79.9,80.2 159.9,160.3 239.9,240.5 -19.7,11.2 -39.5,22.3 -59.2,33.5 -41.1,107.6 -82.2,215.1 -123.3,322.6 9.2,3.8 18.4,7.5 27.6,11.3 40.3,-70.6 80.6,-141.3 120.8,-211.9 17.6,0.6 35.2,1.1 52.7,1.7 46.3,150.2 92.5,300.4 132.8,431.6 4.4,-45.8 10.9,-114.8 22.3,-234.8 78,72.6 149.9,110.8 173.4,168.7 28.2,69.6 15.3,156 21.5,255.6 64.9,-309.6 59.8,-302.3 -178.5,-467.5 -61.9,-42.8 -84.5,-145.4 -118.9,-223.3 -18.5,-41.8 -8.9,-106.5 -37.6,-131.4 -125,-108.8 -261,-204.9 -389.5,-309.9 -32.6,-26.8 -62.6,-66.1 -76,-105.6 -57.2,-169.3 -117.7,-338.5 -157.5,-512.2 -28.1,-122.9 -48.5,-257.5 -25.2,-377.7 10.8,-55.6 139.2,-133.6 205.5,-125.9 384,44.6 766.4,105.8 1146.8,175.7 88.9,16.3 180.8,73.7 248.3,136.8 110.7,103.6 202.6,227.2 302.4,342.4 7.4,-5.1 14.8,-10.2 22.2,-15.2 -112.4,-259.9 -224.7,-519.7 -348.7,-806.5 253.9,-51.9 494.7,-158.5 718.9,-130.7 219.8,27.3 422.6,191.4 632.9,295.5 -4.6,7.3 -9.2,14.6 -13.7,22 -73.9,-90 -147.8,-179.9 -249.5,-303.8 110.7,-20.2 176.1,-36.6 242.5,-43.5 352.2,-36.5 696.6,-13.5 1022.3,142 -157.3,-145.7 -344.5,-240.8 -556.9,-233.5 -556.6,18.9 -1112.7,54.6 -1668.9,85.1 -164.7,9 -295.2,72.7 -347.6,259.3 -182,-225.8 -437.3,-279 -676.1,-370.5 -127.4,-48.8 -255.2,-123.5 -352.8,-217.7 -157.9,-152.7 -328,-270.5 -542.7,-317.2 -108.3,-23.6 -158.5,-71.6 -173,-194.6 -21,-177 -91.4,-347.6 -123.3,-524.1 -31.6,-175.2 -52,-354 -55.9,-531.7 -1.6,-70 54.9,-141.2 88.6,-220.4 71.4,45.2 115.3,73 159.3,100.8 17.5,-61.7 16.5,-127.6 -14.8,-148.9 -157.4,-107.3 -107.7,-243.9 -88.2,-392.1 25.3,-192 41.1,-391.6 15.1,-581.7 -18.1,-132.8 -105.6,-259.5 -175.4,-381.3 -113.4,-198 -204.2,-400.1 -221.9,-647.2 83.1,10.9 137.7,13.9 190.3,25.5 286.8,63.6 573.4,128.1 859.2,195.8 46.4,11 97.1,30.4 131.4,61.8 319.1,291.8 707.4,340.3 1115.9,332 190.3,-3.9 381,8.1 571.5,14.1 170.8,5.3 325.4,31.3 302,258.7 31.7,-78.7 63.4,-157.4 94,-233.5 -168.9,-121.7 -447.6,-56.6 -588.4,-306.9 -3.5,0.6 -40.4,9.4 -77.8,13.4 -345,36.8 -676.7,-9.3 -981.7,-180.1 -60.1,-33.6 -125.2,-101.9 -139.5,-165.1 -39.5,-174.7 -80.7,-201.8 -257.8,-188.6 -148.5,11.1 -306.7,9.9 -448.8,-29.2 -435.5,-119.9 -720.8,-430 -963,-794.7 -108.9,-164 -152.8,-333.8 -144.4,-524.5 18.8,-424.4 162.6,-534.3 574.1,-437.9 8.6,2 18.7,-2.6 23.9,-3.4 -166.2,-190.4 -333.5,-382.1 -500.9,-573.8 8.2,-13.7 16.3,-27.4 24.4,-41.1 169.2,49.8 337,105.4 508,147.9 172.7,42.9 348.6,72.8 513.7,106.5 0,205.1 0,400.3 0,615.1 16.8,-211.9 32.1,-404.1 51.2,-645.4 231,97 426,164.2 606.8,258.7 180.9,94.6 212.6,195.5 155.8,396.4 -32.2,114.1 -79.1,224.1 -119.9,337.1 20.9,-6.4 50.1,-15.3 81.8,-25 3.9,76.2 7,138.1 8.6,169.6 56,-138.8 116.5,-300.6 186.2,-458.4 105,-238.1 67.1,-437.9 -140.7,-595.2 -107.7,-81.5 -229.6,-148.6 -353.4,-203.6 -233.5,-103.7 -389.3,-274.9 -485.8,-506.5 -29.3,-70.6 -59.8,-140.7 -88.2,-211.6 -94.1,-234.5 -270,-365.5 -516.2,-402.2 -132.9,-19.8 -267.1,-29.7 -426.9,-46.9 40.3,-144 67.9,-277 117,-401.5 21.3,-54 82.4,-120.7 133.8,-128.9 143.7,-22.8 294.1,-37.7 437.7,-20.6 453.4,54.1 902.7,153.5 1357.8,-3.9 196.3,-67.8 376.6,-28.2 489.4,175.6 27,48.8 71.5,87.8 108,131.2 7.1,-5 14.2,-10 21.3,-15 -59.7,-89.3 -119.4,-178.7 -179.1,-268 9.3,-14.3 18.6,-28.5 27.9,-42.8 213.3,82.7 426.6,165.4 652.3,252.9 -287.1,-362.5 -656.1,-469.9 -1084.5,-397.7 -252.8,42.6 -495.3,58.1 -733.9,-65.3 -183.2,-94.7 -375.8,-171.4 -568,-257.8 80.2,-48.1 164.9,-109.4 258.1,-152.1 142,-65 293.6,-105.6 438.6,-12.5 106.9,68.7 202.2,147.8 344.4,94.4 24.5,-9.1 72.1,36.1 105.8,60.7 45.4,33 87.5,70.4 106.9,86.3 52.9,-55.6 90.3,-94.9 148.2,-155.8 -197.6,-42.3 -385.3,-82.5 -581.6,-124.5 28.3,-43.3 43.3,-66.2 68.9,-105.4 -72.2,-5 -125.1,-9.6 -178.1,-12.3 -272.3,-13.6 -510.2,89.3 -748.9,205.2 -95.2,46.2 -230.2,88.5 -318.4,55.6 -201.9,-75.2 -336.4,-238.5 -376.4,-460.7 -63.5,-353.6 76.5,-634.3 322.8,-893.5 29.4,47.7 51,83.9 73.8,119.3 23.8,37.2 48.8,73.6 99.6,149.9 -104.5,-299 -104.5,-299 -37.3,-601.9 71.7,-322.8 -29.5,-499.6 -340.6,-618 29.8,-143.8 59,-284.9 90.7,-437.8 53.1,0 122.2,0 191.2,0 0.5,-9.3 1,-18.7 1.5,-28 -99.2,-10.9 -198.4,-21.8 -310,-34.1 -26.7,-83.4 -57.3,-178.9 -87.8,-274.2 118.3,51 225.7,97.2 332.8,143.2 -293,-190.5 -446.7,-463.5 -485.5,-807.3 -11.6,-102.3 -42.5,-203.2 -45.9,-305.4 -1.3,-38.9 50,-79.5 77.4,-119.4 13.6,8.9 27.1,17.7 40.7,26.6 8.1,119.1 16.1,238.3 24.2,357.4 14.7,-1.9 29.3,-3.8 44,-5.7 0,-52.7 0,-105.4 0,-158.1 10.2,-1.8 20.4,-3.5 30.5,-5.3 127.7,331.8 255.5,663.6 384.1,997.7 -22.9,4.8 -48.2,10.2 -73.5,15.5 67,85 130.3,173.3 202.4,253.8 54.3,60.7 120,111.3 177.1,163.3 -81.5,-160.3 -182.2,-306.5 -232.4,-468.3 -89.3,-287.9 -148.3,-585.3 -219,-879 -2.1,-8.6 5.7,-19.6 3.6,-13.1 245.3,234.8 495.8,474.6 746.3,714.4 5,-6.6 10,-13.2 15,-19.8 -126.8,-239.1 -253.6,-478.2 -383.1,-722.3 215.9,4.9 279.2,142.1 343.2,292.6 104.9,246.6 224.4,486.9 337.8,729.9 9.9,-4.6 19.7,-9.2 29.5,-13.8 -74.6,-226.8 -149.2,-453.6 -223.9,-680.4 13.6,-6.1 27.1,-12.3 40.6,-18.4 107.9,117.9 215.8,235.8 346.4,378.4 -82,-342.5 30.6,-619.3 67.8,-943.5 74.8,167 131,292.6 196.9,439.7 -22,-290.5 -41.9,-552 -61.7,-813.5 14,-2.1 27.9,-4.3 41.9,-6.5 42.5,109.8 81.6,221.1 128.3,329 45.4,105.1 92.1,210.6 150.2,308.7 56.3,95 128,180.9 192.9,270.7 -236.4,-458.3 -443.1,-911.2 -393.3,-1477.9 67.3,127.6 116.8,221.4 166.3,315.2 -6.9,-98.3 -43.9,-182.6 -67.1,-270.6 -11,-41.8 -11.4,-119.7 10.4,-131.6 198.5,-108.1 393.7,-240.4 608,-297.2 298.9,-79.1 615.4,-88.7 920.5,-148.1 239.8,-46.7 475.6,-117.9 708.9,-191.7 58.5,-18.5 100.6,-88.8 150.2,-135.3 -52.7,-49.6 -97.4,-118 -159.8,-144.7 -114.4,-48.8 -237.3,-90.7 -360.2,-104.5 -922.2,-103.6 -1845.4,-199.2 -2768.2,-298.3 -241,-25.8 -481.7,-55.1 -722.6,-82.8 1.1,-15.8 2.2,-31.7 3.3,-47.6 189.3,-22.2 379,-41.8 567.8,-67.3 475.9,-64.2 951.9,-127.1 1426.5,-199.8 104.3,-15.9 202.7,-70.3 303.9,-107 -2.7,-18.9 -5.3,-37.9 -7.9,-56.8 -58.9,-21.5 -116.6,-56.8 -176.9,-62 -282.7,-24.5 -566.1,-55.4 -849.4,-57.2 -1273.4,-7.9 -2546.9,-6.7 -3820.4,-8.7 -72.3,-0.2 -144.6,-0.1 -216.8,-0.1 34.1,-43.1 68.9,-53.8 104.3,-56.4 348.7,-25.9 698.9,-38 1045.8,-78.1 563.5,-65.2 1125.2,-145.4 1686.5,-227.5 82.2,-11.9 157.7,-68.6 236.3,-104.6 -2.2,-18.6 -4.5,-37.1 -6.8,-55.7 -68.6,-24.2 -136.4,-66.6 -206.1,-69.8 -583,-27.2 -1166.6,-69.2 -1749.6,-63.3 -600.4,6.2 -1199.9,78.8 -1800.4,91.6 -1830.6,38.9 -3661.6,62.9 -5492.4,92.5 -83.9,1.4 -167.8,0.2 -251.6,0.2 12.8,-39.3 25.5,-46.3 38.7,-47.5 664.1,-55.5 1328.3,-109.6 1992.3,-165.9 1175.5,-99.5 2351.2,-196.9 3526,-303.7 205.6,-18.7 407.4,-78.8 610.9,-119.7 -0.5,-20.9 -1,-41.8 -1.6,-62.6 -52.7,-19.9 -103.8,-47.7 -158.3,-58.2 -155.3,-30.1 -311.2,-66.6 -468.4,-76.8 -1739.2,-113.2 -3477.6,-246.198 -5218.4,-324.097 -1419.3,-63.601 -2841.4,-77.402 -4262.4,-82.301 -2514.3,-8.5 -5028.6,6.297 -7542.9,12.399 -105.1,0.199 -210.1,10.898 -315.2,16.801 0.8,21.597 1.5,43.3 2.3,65 3894.6,37.199 7789.2,74.296 11683.8,111.5 0,19.796 -0.1,39.498 -0.1,59.298 -102.2,0 -204.4,-0.9 -306.5,0.1 -2437.8,24.8 -4875.7,40 -7313.3,78.5 -1551.8,24.4 -3103,82.6 -4654.4,128.4 -147.5,4.3 -294.3,27.7 -441.5,42.3 1.1,15.6 2.2,31.2 3.2,46.9 614.8,21.7 1229.5,43.4 1844.2,65.2 -37.1,37 -74.2,44.7 -111.5,46.2 -556.9,22.9 -1113.7,49.2 -1670.8,66.4 -1601.8,49.3 -3201.5,23.3 -4800.8,-97.4 -1155.1,-87.1 -2313.2,-149.1 -3471.98,-44.3 -55.91,5 -110.73,22.1 -166.06,33.5 1.16,19 2.32,37.9 3.47,56.8 1004.37,27.6 2008.77,55.2 3013.07,82.7 -0.3,19.8 -0.7,39.6 -1.1,59.4 -712.8,34.8 -1425.6,69.6 -2138.4,104.5 -0.3,14.4 -0.6,28.9 -1,43.4 1356.7,50.6 2713.4,101.2 4070,151.9 -37.9,17.5 -75.4,17.8 -112.8,17.4 -1289.8,-12.6 -2580.1,-7 -3869.2,-42.2 -1886.06,-51.6 -3770.44,-67.3 -5652.63,86.7 -159.29,13 -316.24,54.6 -474.28,82.9 1.69,21.4 3.38,42.8 5.06,64.2 795.33,189.1 1612.8,126.1 2422.94,201.7 -190.11,36.7 -380.22,73.4 -570.32,110 1.13,21.8 2.26,43.6 3.39,65.4 1006.29,159.9 2029.35,158.8 3040.58,279.2 -109.91,16.9 -218.89,16.9 -327.87,16.9 -1322.78,-0.1 -2645.6,-6.2 -3968.33,2.6 -496.86,3.4 -993.6,39 -1490.16,64.8 -96.93,5 -192.7,32.2 -289.01,49.2 1.61,16.8 3.21,33.5 4.81,50.3 454.01,25.3 908.02,50.6 1362.03,76 -59.2,36.1 -120.59,45.6 -182.32,49.1 -758.29,44.2 -1516.87,83.7 -2274.78,133.5 -204.86,13.4 -407.73,57.2 -611.51,87 0.9,27 1.8,53.9 2.71,80.8 239.72,31 478.91,67.2 719.3,91.6 244.52,24.8 490.13,39.1 735.42,55.8 238.4,16.3 476.98,29.8 715.48,44.5 -0.32,8.3 -0.64,16.6 -0.96,24.9 -171.13,31.8 -342.27,63.5 -513.41,95.3 0.63,18.7 1.25,37.5 1.88,56.2 149.3,23.7 298.6,47.5 447.91,71.2 -547.24,90.3 -1095.34,160.6 -1662.74,340 90.96,69.9 145.8,121.1 208.77,158.7 173.33,103.5 344.73,212.8 527.23,297.5 134.32,62.3 158.61,130.3 101.75,262.6 -121.52,282.7 -230.69,570.6 -344.92,856.4 9.72,4.5 19.44,9.1 29.15,13.6 151.48,-303 302.96,-605.9 454.44,-908.9 14.75,4.2 29.5,8.4 44.25,12.6 -37.08,330 -74.16,659.9 -111.25,989.9 4.59,0.6 9.17,1.2 13.75,1.8 21.33,-88.3 42.66,-176.6 63.98,-264.9 8.51,1 17.01,2 25.52,3.1 12.8,63.6 25.59,127.2 38.39,190.7 26.96,-259.2 -7.87,-522.6 122.14,-794.5 23.14,69.7 50.5,110.7 47.36,149.2 -28.21,345.2 -61.79,690 -94.89,1046.8 83.42,-277.2 164.22,-545.6 245.02,-814.1 11.18,1.8 22.37,3.7 33.56,5.5 0,497.3 0,994.6 0,1492 5.03,0 10.07,0 15.11,0.1 50.05,-577.5 100.1,-1154.9 150.14,-1732.3 9.34,-0.3 18.68,-0.6 28.02,-0.9 0,170.6 0,341.3 0,512 7.73,0.6 15.45,1.1 23.18,1.7 23.19,-154.2 46.39,-308.4 73.1,-486 120.75,52.8 222.03,97.1 328.17,143.5 -35.58,106.1 -36.96,206.7 -52.24,280.8 -43.9,212.9 -168.52,409.2 -261.42,612 -18.38,-7 -36.76,-14 -55.14,-21 0,-68.2 0,-136.3 0,-204.5 -4.63,0.6 -9.25,1.1 -13.88,1.7 -24.99,108.8 -49.97,217.5 -81.83,356.2 240.6,-153.6 366.25,-385.8 524.52,-607.3 9.04,39 27.14,71.4 21.02,98.4 -30.61,134.5 -70.73,266.9 -101.62,401.5 -58.18,253.3 -71.06,265.4 -331.04,265.7 -13.49,0 -26.99,-3 -41.99,-4.8 0,42.8 0,78.6 0,93.5 79.85,-7 153.7,-13.5 250.53,-21.9 -206.09,447 -399.13,865.8 -592.16,1284.5 12.59,5.7 25.18,11.4 37.77,17.1 189.5,-374.6 378.22,-749.5 569.19,-1123.3 36.9,-72.2 72.9,-148.6 126.05,-208.1 174.1,-195 355.9,-383.1 526.39,-565 203.74,194.8 55.36,348.7 -108.54,508.4 82.16,-58.4 164.33,-116.8 247.3,-175.8 63.86,159.3 59.53,302.2 -30.26,449.2 -52.81,86.4 -82.97,190.9 -104.22,291.3 -33.16,156.7 -123.05,261.7 -253.15,345.3 -114.45,73.6 -232.94,145.5 -332.14,237.1 -182.78,168.7 -205.17,365.9 -71.04,575.9 82.07,128.5 178.97,247.8 273.63,367.8 154.28,195.5 208.01,415.3 178.26,660.7 -49.72,410.3 -398.16,605.3 -759.87,423.4 -82.8,-41.6 -165.48,-85.4 -252.36,-116.7 -202.63,-72.8 -410.41,-97.3 -641.25,-49.9 35.05,37.2 56.76,60.2 92.31,97.9 -203.9,97 -459.76,-32.2 -600.41,184.8 38.67,-4.4 82.96,-9.5 129.6,-14.9 -3.83,43.8 -6.65,76.2 -12.53,143.5 129.04,-128 240.01,-224.8 406.75,-172.6 19.1,6 49.09,-19.2 72.82,-32.1 326.95,-178.4 521.69,-151.7 817.73,112.1 -110.98,39.4 -235.33,59.3 -331.8,122 -333.11,216.7 -680.91,247.1 -1065.6,170.9 -401.82,-79.6 -818.88,117.9 -988.21,426.4 218.88,-114 426.57,-235.5 705.23,-254.6 -81.81,116.3 -141.43,201.1 -201.04,285.8 43.44,-2.6 65.89,-19.7 77.74,-42.4 150.57,-288.1 384.12,-311.8 664.01,-221.1 253.1,82 511.26,91.3 776.89,49.6 239.91,-37.6 484.62,-58 727.44,-60.1 287.48,-2.5 459.57,273.2 360.4,568.7 -498.76,-72 -798.93,160.4 -966.5,626.6 -90.99,253.1 -279.48,438.7 -538.18,544.3 -90,36.7 -175.75,89.3 -254.74,146.6 -236.39,171.6 -281.54,362.9 -169.75,630.3 69.24,165.8 125.13,337.1 175.28,473.9 49.48,-145.8 30.74,-324.6 -29.71,-510.9 -65.13,-200.7 -25.26,-296.4 159.94,-392.6 180.45,-93.8 375.22,-160 593.29,-250.5 21.29,238.8 38.48,431.6 56.17,630.1 0,-200.9 0,-396 0,-589.7 340,-86.6 682.14,-173.8 1024.29,-261 7.06,13.3 14.12,26.6 21.18,39.9 -141.49,153.2 -282.98,306.4 -434.49,470.5 36.29,0 61.84,0 87.6,0.2 62.51,-76.5 124.82,-153.2 187.13,-230 14.75,12.9 29.49,25.8 44.24,38.6 -4.88,61.9 -9.76,123.7 -14.74,186.8 -82.97,0 -151.93,0 -220.9,0 -53.78,29.5 -107.56,59 -161.34,88.5 35.08,13.8 61.52,9.1 87.71,3.3 323.89,-71.4 461.81,17.2 510.54,345.3 15.67,105.5 24.08,224.3 -8.32,322.4 -103.05,312.2 -295.55,574.2 -544.62,783.5 -303.17,254.9 -635.55,443.7 -1062.68,346.8 -50.91,-11.5 -174.25,63.8 -175.01,100.6 -5.7,276.7 -223.24,329.5 -409.29,368.6 -277.31,58.3 -565.01,67.2 -835.78,95.7 -108.81,221.9 -396.627,136.3 -554.725,265 22.785,75.5 45.114,149.4 78.735,260.7 5.047,-176.5 69.863,-271.2 220.66,-278.3 206.48,-9.8 413.28,-24.8 619.67,-21.5 412.63,6.7 806.4,-36.6 1136.04,-323.2 50.04,-43.5 125.03,-64.9 192.2,-80.8 243.12,-57.8 487.7,-109.6 732,-162.3 80.49,-17.4 161.82,-30.9 242.77,-46.2 14.66,15.2 29.32,30.3 43.98,45.5 -66.47,169.4 -102.16,361.1 -205.47,503.8 -259.73,358.8 -311.96,736.3 -182.02,1147.4 34.94,110.5 5.44,184.5 -74.85,259.9 -42.82,40.2 -63.14,104.4 -93.61,157.8 234.07,-71.7 294.67,-43.5 310.99,187.2 9.38,132.7 -18.94,270.5 -46,402.8 -41.35,202.1 -111.75,399.3 -139.75,602.8 -17.25,125.2 -67.42,169.5 -178.25,212.4 -164.34,63.6 -353.48,127.3 -463.63,251.6 -159.29,179.7 -340.03,280.3 -561.11,337.2 -226.43,58.4 -430.49,155.1 -575.8,349.3 -20.76,27.7 -53.31,46.6 -80.41,69.6 -5.95,-5.3 -11.9,-10.7 -17.86,-16 37.05,-48.7 74.1,-97.5 139.85,-184 -115.89,-58.5 -213.9,-145.9 -317.76,-153.5 -363.94,-26.6 -729.882,-25.6 -1095.07,-35.1"
         style="fill:#231f20;fill-opacity:1;fill-rule:nonzero;stroke:none"
         transform="matrix(0.13333333,0,0,-0.13333333,0,4000)" />
      <path
         id="path5"
         d="m 32977.1,23695 c 205.2,344.4 525.7,491.5 900.8,538.4 38.5,4.9 86.9,-37.4 125,-65.6 186.7,-138.1 336.2,-121.5 479.3,64.6 166.2,216.2 312.8,449.4 493.9,652 412.3,461.3 871.3,638 1414.9,550.8 -80.1,-22.7 -160,-45.6 -240.2,-67.8 -272.4,-75.4 -488.6,-213.3 -576.4,-502.4 -13.7,-45 -40.4,-99.3 -77.7,-121.7 -210.5,-126.6 -287,-319.1 -282.3,-514.3 -161.8,-69 -328.7,-98.4 -434.7,-194.7 -181.6,-165.2 30.6,-267.9 153.4,-416.9 -293.8,141.7 -294.5,-147.1 -411.2,-199.7 -156.7,67.8 -299.7,126.9 -439.5,192.5 -29.6,13.9 -59.6,47.8 -69.5,78.9 -47.6,149 -161.3,194.1 -300.8,209.4 -214.7,23.7 -411.1,-31.4 -598.2,-131.3 -45.5,-24.3 -91.2,-48.1 -136.8,-72.2"
         style="fill:#231f20;fill-opacity:1;fill-rule:nonzero;stroke:none"
         transform="matrix(0.13333333,0,0,-0.13333333,0,4000)" />
      <path
         id="path6"
         d="m 30227,23211.3 c -106.3,47.7 -201.2,102.6 -303.5,131.2 -56.4,15.8 -131.7,1.4 -187,-24.1 -131.4,-60.5 -256,-135.7 -383.2,-204.9 -62.6,103.2 -106.8,176.1 -153.7,253.4 165.1,136.1 139.6,217.7 -120.4,331.8 -48.5,407.9 -225.9,715.8 -606.8,891.5 253.8,13.9 515.4,-96 684.8,-331.8 128.9,-179.3 220.6,-385.8 324.9,-582.2 46.8,-87.9 77.7,-179.5 212.2,-155.1 281.9,51.3 418.5,-31.4 532.7,-309.8"
         style="fill:#231f20;fill-opacity:1;fill-rule:nonzero;stroke:none"
         transform="matrix(0.13333333,0,0,-0.13333333,0,4000)" />
      <path
         id="path7"
         d="m 32881.3,23353.8 c -170.4,-57.8 -341.3,-115.4 -511.7,-174.3 -19.2,-6.6 -51.3,-21.2 -51.1,-31.7 1.5,-141.3 -132.2,-151.4 -190.4,-129.8 -79.7,29.5 -133.8,127.9 -184.7,211.8 -272.1,68.5 -344.7,385.1 -584.9,498.8 264.9,25.4 470.2,-88.3 625.1,-278.1 118.1,-144.6 214.2,-176.2 380.9,-69 203.1,130.6 377.1,105.4 516.8,-27.7"
         style="fill:#231f20;fill-opacity:1;fill-rule:nonzero;stroke:none"
         transform="matrix(0.13333333,0,0,-0.13333333,0,4000)" />
      <path
         id="path8"
         d="m 14517.1,21061.3 c -129.9,16.6 -243.3,48.9 -352.4,38 -60.1,-6 -130.6,-75.1 -162.1,-134 -17.8,-33.6 30,-105.9 54.9,-157.4 24.9,-51.5 58.1,-99 82,-159.4 -273.8,197.8 -321.9,-142.1 -477.3,-182.5 -177.2,90.8 -349.7,179.2 -540.5,276.9 -43.6,172.9 -109.7,239.9 -324.3,218.6 -203.9,-20.2 -403.9,-81.9 -604.9,-128.5 -50.6,-11.8 -98.5,-35.6 -147.6,-53.8 -10.3,16.6 -20.6,33.2 -30.9,49.9 167.5,112.8 326.8,241.4 504.9,333.8 153.1,79.4 325.9,123.7 493.8,169.7 45.8,12.5 114.3,-11.5 156.9,-41.1 225.5,-157.1 335.5,-158 552.4,31.7 371.2,324.6 777.2,581.8 1266.9,686 394,83.8 780.6,81.2 1150,-104.7 26.5,-13.3 48.4,-35.7 105.1,-78.7 -164.4,14 -287.2,23.5 -409.7,35.2 -317.4,30.2 -574.2,-79.2 -786.7,-317.6 -59.9,-67.1 -153.1,-117.1 -240.5,-144.2 -173.3,-53.8 -258.7,-170.9 -290,-337.9"
         style="fill:#231f20;fill-opacity:1;fill-rule:nonzero;stroke:none"
         transform="matrix(0.13333333,0,0,-0.13333333,0,4000)" />
      <path
         id="path9"
         d="m 14265.1,25887.5 c 423.2,44.6 768.2,-69.5 1089.2,-270.7 320.4,-200.9 566.3,-476.1 768,-792.9 73.2,-114.9 139.2,-234.8 217.6,-346.1 105.6,-150 249.7,-187.1 395.6,-84.5 94.7,66.6 170.8,57.9 269.3,26.1 305,-98.4 534.4,-279.7 690.1,-596.8 -384,188.8 -753.9,490.9 -1088.4,-17.7 -169,-50.3 -342.8,-102.1 -533,-158.8 -110.1,79.6 -62.2,394.2 -367.7,286.4 85.6,141.9 299.3,209.6 205.1,418.1 -84.4,186.9 -261.1,164.9 -425.6,168.1 -12.2,109.4 -12.8,213.4 -38.2,311 -18.1,69.6 -53.8,156 -109.3,190.2 -126.3,77.8 -168.4,198.2 -237.4,315.2 -78.5,132.9 -203.8,251.3 -334.4,336.8 -138,90.4 -306.1,134.7 -500.9,215.6"
         style="fill:#231f20;fill-opacity:1;fill-rule:nonzero;stroke:none"
         transform="matrix(0.13333333,0,0,-0.13333333,0,4000)" />
      <path
         id="path10"
         d="m 9680.87,24349.1 c -137.7,42.7 -263.23,96.8 -394.08,118.1 -134.23,21.9 -253.11,7.6 -351.42,-137.4 -63.37,-93.5 -218.27,-124.9 -331.62,-183.8 -76.47,70.8 -152.41,141.1 -223.66,207 4.12,61.9 46.84,177.1 6.77,234.4 -50.25,71.9 -168.4,96.3 -280.6,152.9 50,285.1 -229.13,448 -358.45,681.9 -62.66,113.3 -244.42,160.8 -369.08,236.1 322.63,25.7 595.85,-102.8 809.02,-345.3 150.46,-171.1 271.82,-367.9 405.43,-553.8 123.75,-172.1 180.33,-176.1 371.24,-91.6 79.21,35.1 187.94,31.3 276.16,12.3 192.56,-41.4 334.42,-161.8 440.29,-330.8"
         style="fill:#231f20;fill-opacity:1;fill-rule:nonzero;stroke:none"
         transform="matrix(0.13333333,0,0,-0.13333333,0,4000)" />
      <path
         id="path11"
         d="m 8186.46,23608.8 c 170.21,141.1 330.82,171.5 496.21,60.1 145.92,-98.3 237.41,-63.2 373.65,29.5 156.51,106.6 351.06,159.7 533.19,224.4 48.74,17.4 112.43,-7.3 161.73,-12 -141.4,-119 -274.62,-232.6 -410.27,-343.3 -17.95,-14.6 -47.9,-17.7 -72.87,-20 -68.7,-6.4 -161.04,34.8 -126.95,-113.1 7.36,-31.9 -150.56,-151.1 -217.44,-140 -115.55,19.1 -236.2,81.7 -307.3,200.5 -21.5,35.9 -68.49,70.4 -109.12,78.3 -100.6,19.8 -204.28,23.8 -320.83,35.6"
         style="fill:#231f20;fill-opacity:1;fill-rule:nonzero;stroke:none"
         transform="matrix(0.13333333,0,0,-0.13333333,0,4000)" />
    </g>
  </g>
</svg>
